<?xml version="1.0" encoding="UTF-8"?>
<svg id="_Слой_1" data-name="Слой 1" xmlns="http://www.w3.org/2000/svg" viewBox="0 0 2260.55 774.58">
  <defs>
    <style>
      .cls-1 {
        fill: #ed6966;
      }

      .cls-2 {
        fill: #a83f3f;
      }

      .cls-3 {
        fill: #fff;
      }

      .cls-4 {
        fill: #fda6a4;
      }

      .cls-5 {
        fill: #fc9290;
      }

      .cls-6 {
        fill: #3a65c2;
      }

      .cls-7 {
        fill: #d3e0fc;
      }

      .cls-8 {
        fill: #0b0754;
      }

      .cls-9 {
        fill: #060632;
      }

      .cls-10 {
        fill: #010117;
      }

      .cls-11 {
        fill: #b05050;
      }

      .cls-12 {
        fill: #dde8fd;
      }

      .cls-13 {
        fill: #030231;
      }

      .cls-14 {
        fill: #9e332e;
      }

      .cls-15 {
        fill: #6d89cf;
      }

      .cls-16 {
        fill: #3662c1;
      }

      .cls-17 {
        fill: #fa7269;
      }

      .cls-18 {
        opacity: .6;
      }

      .cls-18, .cls-19 {
        fill: #e2ebfd;
      }

      .cls-20 {
        fill: #3a49cd;
      }

      .cls-21 {
        fill: #bed2fa;
      }

      .cls-22 {
        fill: #efa2a2;
      }

      .cls-23 {
        fill: #93b3f4;
      }
    </style>
  </defs>
  <path class="cls-19" d="m718.46,235.9v536.41l-645.33,2.27c1.62-23.45-104.6-332.72,31.55-509.4,193.21-250.81,358.33-47.98,576.29-30.37,12.32.97,24.75,1.41,37.5,1.08Z"/>
  <path class="cls-3" d="m2201.26,761.93c-.86,6.7-70.78-1.08-71.75,5.51l-436.24,1.51h-974.81V235.9c12.32-.32,24.75-1.3,37.5-3.03,42.79-5.84,87.64-20.53,135.18-48.19,492.11-285.39,892.79-207.91,1117.77,14.91,27.66,27.45,52.73,57.16,74.99,88.61,95.63,135.4,138.86,304.08,117.35,473.74Z"/>
  <path class="cls-18" d="m2206.66,677.54c.11,29.28-1.62,58.68-5.4,88.18-.86,6.7-70.78-1.08-71.75,5.51l-436.24,1.51h-974.81v-.43l974.81-3.35,436.24-1.51c.97-6.59,70.89,1.19,71.75-5.51,3.57-28.2,5.4-56.41,5.4-84.4Z"/>
  <polygon class="cls-12" points="2014.82 361.31 2014.82 768.97 755.96 768.97 755.96 414.23 852.45 414.23 852.45 317.42 948.95 317.42 948.95 448.21 1027.07 448.21 1027.07 418.99 1163.16 418.99 1163.16 468.4 1222.39 468.4 1222.39 357.44 1380.92 357.44 1380.92 167.15 1506.28 167.15 1506.28 268.64 1534.87 268.64 1534.87 183.62 1660.22 183.62 1660.22 314.58 1773.84 314.58 1773.84 234.22 1895.35 234.22 1895.35 314.58 1918.01 314.58 1918.01 361.31 2014.82 361.31"/>
  <g>
    <path class="cls-23" d="m464.42,270.3h105.68c6.88,0,12.47,5.59,12.47,12.47v101.78c0,6.88-5.59,12.47-12.47,12.47h-105.68c-6.88,0-12.47-5.59-12.47-12.47v-101.79c0-6.88,5.59-12.47,12.47-12.47Z"/>
    <path class="cls-19" d="m468.99,275.79h96.53c6.29,0,11.39,5.1,11.39,11.39v92.97c0,6.29-5.1,11.39-11.39,11.39h-96.53c-6.29,0-11.39-5.1-11.39-11.39v-92.97c0-6.29,5.1-11.39,11.39-11.39Z"/>
    <g>
      <g>
        <path class="cls-23" d="m514.55,287.36c0-1.49,1.21-2.71,2.71-2.71s2.71,1.21,2.71,2.71-1.21,2.71-2.71,2.71-2.71-1.21-2.71-2.71Z"/>
        <path class="cls-23" d="m536.39,291.18c.73-1.31,2.37-1.78,3.68-1.05,1.31.73,1.78,2.37,1.05,3.68-.73,1.31-2.37,1.78-3.68,1.05-1.31-.73-1.78-2.37-1.05-3.68Z"/>
        <path class="cls-23" d="m555.09,306.04c1.26-.81,2.93-.45,3.74.81.81,1.26.45,2.93-.81,3.74-1.26.81-2.93.45-3.74-.81-.81-1.26-.45-2.93.81-3.74Z"/>
        <path class="cls-23" d="m564.36,329.05c1.49,0,2.71,1.21,2.71,2.71s-1.21,2.71-2.71,2.71-2.71-1.21-2.71-2.71,1.21-2.71,2.71-2.71Z"/>
        <path class="cls-23" d="m559.63,355.74c1.06,1.06,1.06,2.77,0,3.83-1.06,1.06-2.77,1.06-3.83,0-1.06-1.06-1.06-2.77,0-3.83,1.06-1.06,2.77-1.06,3.83,0Z"/>
        <path class="cls-23" d="m542.63,372.78c1.06,1.06,1.06,2.77,0,3.83-1.06,1.06-2.77,1.06-3.83,0-1.06-1.06-1.06-2.77,0-3.83,1.06-1.06,2.77-1.06,3.83,0Z"/>
        <path class="cls-23" d="m514.55,381.56c0-1.5,1.21-2.71,2.71-2.71s2.71,1.21,2.71,2.71-1.21,2.71-2.71,2.71-2.71-1.21-2.71-2.71Z"/>
      </g>
      <g>
        <path class="cls-23" d="m498.04,291.18c-.73-1.31-2.37-1.78-3.68-1.05-1.31.73-1.78,2.37-1.05,3.68.73,1.31,2.37,1.78,3.68,1.05,1.31-.73,1.78-2.37,1.05-3.68Z"/>
        <path class="cls-23" d="m479.34,306.04c-1.26-.81-2.93-.45-3.74.81-.81,1.26-.45,2.93.81,3.74,1.26.81,2.93.45,3.74-.81.81-1.26.45-2.93-.81-3.74Z"/>
        <path class="cls-23" d="m470.07,329.05c-1.49,0-2.71,1.21-2.71,2.71s1.21,2.71,2.71,2.71,2.71-1.21,2.71-2.71-1.21-2.71-2.71-2.71Z"/>
        <path class="cls-23" d="m474.8,355.74c-1.06,1.06-1.06,2.77,0,3.83,1.06,1.06,2.77,1.06,3.83,0s1.06-2.77,0-3.83-2.77-1.06-3.83,0Z"/>
        <path class="cls-23" d="m491.79,372.78c-1.06,1.06-1.06,2.77,0,3.83,1.06,1.06,2.77,1.06,3.83,0s1.06-2.77,0-3.83c-1.06-1.06-2.77-1.06-3.83,0Z"/>
      </g>
    </g>
    <g>
      <path class="cls-23" d="m516.53,331.75c0-1.49,1.21-2.71,2.71-2.71s2.71,1.21,2.71,2.71-1.21,2.71-2.71,2.71-2.71-1.21-2.71-2.71Z"/>
      <rect class="cls-23" x="518.86" y="297.95" width=".74" height="33.8"/>
      <rect class="cls-23" x="516.46" y="323.56" width="22.78" height="2.22" transform="translate(-87.81 395.37) rotate(-38.15)"/>
    </g>
  </g>
  <path class="cls-7" d="m755.96,232.87v533.29h-75.01V234.79c24.31,1.98,49.27,1.63,75.01-1.92Z"/>
  <path class="cls-7" d="m2083.91,288.2v477.95h-75.01V199.58c27.72,27.47,52.78,57.14,75.01,88.62Z"/>
  <path class="cls-10" d="m4.35,764.1h2251.84c2.4,0,4.35,1.95,4.35,4.35v1.01c0,2.4-1.95,4.35-4.35,4.35H4.35C1.95,773.82,0,771.87,0,769.46v-1.01C0,766.05,1.95,764.1,4.35,764.1Z"/>
  <g>
    <polygon class="cls-20" points="817.46 577.92 805.43 577.92 820.16 764.38 849.42 764.38 817.46 577.92"/>
    <g>
      <path class="cls-9" d="m1056.7,523.51l-2.58.52c-11.5,2.32-22.81-5.18-25.13-16.68l-2.73-13.5c-2.32-11.5,5.18-22.81,16.68-25.13l2.58-.52c11.5-2.32,22.81,5.18,25.13,16.68l2.73,13.5c2.32,11.5-5.18,22.81-16.68,25.13Z"/>
      <path class="cls-20" d="m805.43,577.92s65.7-30.84,155.71-10.32l-143.68,10.32h-12.03Z"/>
      <path class="cls-21" d="m849.42,766.16l-31.96-188.23s100.66-33.81,178.76,0l46.46,187.05-193.25,1.19Z"/>
      <g>
        <path class="cls-15" d="m1545.4,707.87c-1.79,20.42-13.32,26.73-18.39,26.19-5.07-.54-34.73-11.87-35.37-7.71-.65,4.16,17.21,17.73,29.71,18.37,0,0-23.6,26.03-39.29,18.52-15.69-7.51-17.02-19.42-26.8-23.89-9.78-4.47-18.12-4.45-14.09.1,4.04,4.55,21.74,8.98,27.33,18.87,1.32,2.33,2.61,4.49,3.59,6.39l-33.03-.07c-10.47-5.2-19.3-12.38-19.95-20.12-.05-.59-.1-1.15-.14-1.69l-1.02-11.9s-16.96-19.78-8.14-36.2c1.46-2.73,3.64-5.36,6.72-7.8,0,0,15.81-9.57,28.7-8.79,0,0-9.99,16.75-12.8,26.7-.99,3.51-1.09,6.17.45,6.96,1.68.87,3.86-1.66,6.12-5.71,5.65-10.15,11.77-29.88,11.77-29.88,0,0,9.5-.92,20.32-1.06,4.85-.06,9.97.03,14.61.44,5.12.45,9.66,1.28,12.61,2.7,0,0-.65.53-1.73,1.44-1.61,1.35-4.2,3.54-7.07,6.09-8.53,7.54-19.61,18.18-15.47,19.14,3.35.78,13.88-5.48,23.25-11.69,8.72-5.77,16.44-11.51,16.44-11.51,0,0,33.48,5.7,31.69,26.12Z"/>
        <g>
          <path class="cls-15" d="m1528.96,708.42s-90.93-3.5-111.01,22.5c0,0-4.44,13.3-18.11,25.41l-2.13,5.8s15.76-16.61,21.4-17.62c0,0-8.82-32.22,109.85-36.1Z"/>
          <path class="cls-15" d="m1403.66,756.19c-.78.85-1.95,2.02-3.62,3.56l-.04.04c-.58.54-1.14,1.12-1.69,1.73-.84.93-1.65,1.96-2.42,3.04h-4.25c4.38-5.39,8.19-8.22,8.19-8.22,0,0,0,0,.01,0,.33-.2,8.16-4.93,3.81-.14Z"/>
        </g>
      </g>
      <g>
        <path class="cls-15" d="m1318.68,697.09s36.69-20.54,19.57-48.43c0,0-13.7-17.12-28.37-21.52,0,0,7.83,41.58,0,42.56-7.83.98-5.38-46.96-5.38-46.96,0,0-38.64-18.59-53.81-17.12,0,0,23.97,40.6,16.14,39.62-7.83-.98-34.73-42.07-34.73-42.07,0,0-39.62-7.34-45.98,16.14-6.36,23.48,3.91,35.22,9.78,36.69,5.87,1.47,43.53.98,42.56,5.87-.98,4.89-26.41,12.72-40.6,8.32,0,0,15.65,38.64,36.2,36.69,20.54-1.96,26.9-14.67,39.62-15.65,12.72-.98,22.01,2.45,15.65,5.87-6.36,3.42-27.88,1.12-38.15,9.85-10.27,8.73-18.59,14.11.49,18.03,19.08,3.91,53.32,1.47,60.16-13.21l6.85-14.67Z"/>
        <g>
          <path class="cls-15" d="m1204.22,626.65s102.72,33.26,114.46,70.44c0,0-.49,16.63,9.78,35.71v7.34s-10.76-24.95-16.63-28.37c0,0,22.99-32.28-107.61-85.11Z"/>
          <path class="cls-15" d="m1337.98,764.48h-5.87c-.19-8.5-1.17-18.03-4.06-25.29h0c-.36-.91-.75-1.79-1.18-2.62,0,0,0-.02-.01-.03-1.22-2.39-2.04-4.14-2.56-5.42h0c-3-7.37,4.18,1.67,4.18,1.67,0,0,8.61,13.08,9.51,31.68Z"/>
        </g>
      </g>
      <g>
        <path class="cls-23" d="m1377.05,668.75s-48.36-27.08-25.79-63.83c0,0,18.05-22.57,37.4-28.37,0,0-10.32,54.81,0,56.1,10.32,1.29,7.09-61.9,7.09-61.9,0,0,50.94-24.5,70.93-22.57,0,0-31.59,53.52-21.28,52.23,10.32-1.29,45.78-55.45,45.78-55.45,0,0,52.23-9.67,60.61,21.28,8.38,30.95-5.16,46.42-12.89,48.36-7.74,1.93-57.39,1.29-56.1,7.74,1.29,6.45,34.82,16.76,53.52,10.96,0,0-20.63,50.94-47.71,48.36-27.08-2.58-35.46-19.34-52.23-20.63-16.76-1.29-29.02,3.22-20.63,7.74s36.75,1.48,50.29,12.99c13.54,11.51,24.5,18.6-.64,23.76-25.15,5.16-70.28,1.93-79.31-17.41l-9.03-19.34Z"/>
        <g>
          <path class="cls-15" d="m1527.92,575.9s-135.4,43.85-150.88,92.85c0,0,.64,21.92-12.9,47.07v9.67s14.19-32.88,21.92-37.4c0,0-30.31-42.56,141.85-112.19Z"/>
          <path class="cls-15" d="m1369.66,713.6s0,.01,0,.02c-.69,1.68-1.77,4.01-3.38,7.16,0,0,0,.01-.01.02-.56,1.09-1.07,2.24-1.55,3.44,0,0,0,0,0,0-4.64,11.62-5.55,27.65-5.38,40.28l-7.77-.02c-.93-28.14,12.6-48.68,12.6-48.68h0c.21-.26,9.41-11.8,5.5-2.22Z"/>
        </g>
      </g>
      <path class="cls-8" d="m1136.29,764.97h-183.93c-2.72-6.59-5.1-13.63-7.19-20.97-5.24-18.34-8.64-38.55-10.8-58.35-.03-.25-.06-.51-.08-.76-3.71-34.34-3.73-67.37-3.23-87.21.29-11.48.74-18.55.77-18.9h0c.39-.18.79-.34,1.18-.49,9.75-4.09,19.11-7.62,28.07-10.67.05,0,.08-.02.08-.02,7.54-2.57,14.79-4.79,21.77-6.7,12.27-3.37,23.69-5.79,34.25-7.47,12.45-1.97,23.71-2.91,33.81-3.12.46-.02.9-.02,1.36-.03,2.66-.05,5.24-.04,7.74.02,25.18.54,41.93,5.55,50.41,8.89,1.18.46,2.19.9,3.03,1.29.11.05.22.09.33.14.96.43,1.7.79,2.22,1.05.06.03.14.07.2.11.25.13.49.27.72.41l13.26,139.39,6.03,63.39Z"/>
      <path class="cls-8" d="m1319.58,734.84c-18.43,8.56-128.04,15.74-138.57,12.71-5.4-1.56-28-21.46-50.73-45.95h-.02c-21.51-23.18-43.2-50.44-50.52-70.06-15.05-40.32-2.11-76.11-2.11-76.11,0,0,27.97-.12,39.37,6.77,11.4,6.9,76.59,126.96,85.31,130.13,8.72,3.19,111.98,9.09,123.8,14.7,0,0,11.89,19.27-6.52,27.82Z"/>
      <path class="cls-4" d="m1052.31,555.16l-.03,6.79s1.88,21.22-24.25,24.36c-26.13,3.15-45.95-8.21-45.27-24.59,2.33-12.69,4.91-21.4,5.06-31.9.06-3.9-.21-8.04-.95-12.71l50.65-1.09,14.92,2.41-.14,36.72Z"/>
      <path class="cls-5" d="m1052.45,518.44l-.14,36.72c-5.38,2.51-11.44,4.05-18.25,4.06-23.28.04-46.45-37.43-47.18-42.1l65.57,1.33Z"/>
      <path class="cls-4" d="m1055.43,536.28s-64.85,13.2-72.45-27.31c-7.6-40.51-21.09-66.09,19.99-76.23,41.08-10.14,52.05,3.8,57.88,16.71,5.83,12.91,11.25,82.36-5.42,86.84Z"/>
      <path class="cls-14" d="m1073.42,419.31s-18.09-1.36-39.44-10.61c-17.33-7.5-39.16.82-46.25,4.57.19-1.14.64-2.7,1.72-4.27,0,0-3.18,2.26-3.65,5.42-.33.24-.47.41-.39.46,0,0-3.61-.65-5.93.39,0,0,1.62-.23,2.2.81.06.11.15.2.26.29-26.99,13.09-29.42,55.79-20.71,65.66,10.48,11.87,23.06,38.62,23.06,38.62,0,0,4.56-6.33,2.65-16.79-1.92-10.46,7.12-10.47,18.52-15.24,11.4-4.77,1.87-18.07,11.84-26.17,9.97-8.1,46.58-3.4,46.1-9.58,13.58-4.97,10.02-32.17,10.02-33.56Z"/>
      <path class="cls-13" d="m952.35,764.97c-2.72-6.59-5.1-13.63-7.19-20.97-5.24-18.34-8.64-38.55-10.8-58.35-.03-.25-.06-.51-.08-.76.14.06.37.44.52.26,7.16-8.7,26.71-18.22,50.39,16.44,4.72,6.91,25.44,55.29,28.74,63.38h-61.57Z"/>
      <path class="cls-4" d="m971.57,764.97c-.53-3.13.06-7.06,2.5-11.97,0,0,3.04-1.97,7.06-4.26,6-3.39,14.22-7.49,17.94-6.83.67.12,1.57.32,2.64.58,8.83,2.12,29.4,8.46,32.51,12.17,2.56,3.05,6.05,6.94,8.46,10.32h-71.1Z"/>
      <path class="cls-8" d="m985.18,764.97h-173.31c-.46-2.23-.48-4.28.13-5.83,5.17-13.06,15.26-34.55,26.88-57.62,8.55-16.97,17.91-34.79,26.76-50.72,12.28-22.13,23.53-40.63,30.14-48.22,5.21-5.97,11.79-10.98,18.65-15.11,5.82-3.51,11.84-6.39,17.39-8.69h0c.39-.18.79-.34,1.18-.49,12.07-4.89,21.63-7.03,21.63-7.03,0,0,.13,5.48.14,13.89.04,24.43-.9,73.66-8.7,85.67-2.17,3.35-6.22,8.41-11.28,14.34-.15.17-.29.33-.44.5-2.74,3.21-5.77,6.66-8.96,10.22-18.09,20.26-41,44.06-43.79,46.95-.19.2-.29.3-.29.3h.33l48.6.68,14.91.2,30.91.43c2.13.92,3.8,2.43,5.07,4.31,2.99,4.37,3.91,10.74,4.05,16.23Z"/>
      <path class="cls-13" d="m1319.58,734.84c-18.43,8.56-128.04,15.74-138.57,12.71-5.4-1.56-28-21.46-50.73-45.95,1.12.15,11.52-17.18,58.93,24.29,0,0,12.42,5.53,46.2,2.43,33.79-3.09,77.18-4.23,84.17,6.52Z"/>
      <g>
        <path class="cls-2" d="m1211.89,764.64h-125.31c0-5.52,4.47-9.99,9.99-9.99h115.32v9.99Z"/>
        <polygon class="cls-2" points="1211.53 628.17 1405.27 628.17 1358.8 764.64 1163.81 764.64 1211.53 628.17"/>
        <polygon class="cls-11" points="1408.12 628.16 1361.65 764.64 1166.66 764.64 1214.39 628.16 1408.12 628.16"/>
        <path class="cls-1" d="m1303.67,695.14c-1.2,5.21-6.41,9.44-11.62,9.44s-8.47-4.23-7.26-9.44c1.2-5.21,6.41-9.44,11.62-9.44s8.46,4.23,7.26,9.44Z"/>
        <polygon class="cls-2" points="1408.12 628.16 1361.65 764.64 1270.94 764.64 1379.59 628.16 1408.12 628.16"/>
      </g>
      <path class="cls-9" d="m1001.82,523.51l-2.58.52c-11.5,2.32-22.81-5.18-25.13-16.68l-2.73-13.5c-2.32-11.5,5.18-22.81,16.68-25.13l2.58-.52c11.5-2.32,22.81,5.18,25.13,16.68l2.73,13.5c2.32,11.5-5.18,22.81-16.68,25.13Z"/>
      <path class="cls-9" d="m981.73,474.9c-1.73-3.12-4.27-28.25,2.64-48.25,3.34-9.67,8.74-15.18,15.51-18.9,2.45-1.35,5.19-2.06,7.99-2.06l6.81.11c-22.41,9.49-27.61,60.25-25.86,65.66-.05-.17-.12-.29-.17-.38l-6.91,3.82Z"/>
      <path class="cls-9" d="m1047.13,527.74c-37.67,0-56.31-29.76-56.49-30.07l3.37-2.06-1.68,1.03,1.68-1.03c.17.28,17.73,28.18,53.13,28.18.24,0,.47,0,.71,0l.04,3.95c-.25,0-.5,0-.75,0Z"/>
      <path class="cls-8" d="m995.75,510.3l-1.29.26c-5.73,1.16-11.36-2.58-12.52-8.31l-1.36-6.73c-1.16-5.73,2.58-11.37,8.31-12.52l1.29-.26c5.73-1.16,11.37,2.58,12.52,8.31l1.36,6.73c1.16,5.73-2.58,11.36-8.31,12.52Z"/>
      <path class="cls-9" d="m1051.81,529.05h-3.55c-1.81,0-3.29-1.48-3.29-3.29h0c0-1.81,1.48-3.29,3.29-3.29h3.55c1.81,0,3.29,1.48,3.29,3.29h0c0,1.81-1.48,3.29-3.29,3.29Z"/>
    </g>
  </g>
  <g>
    <path class="cls-14" d="m298.28,470.11s-31.6,16.16-8.57,50.87c0,0-27.15,3.14-33.98-4.67,0,0,1.03,3.42,2.23,5.08,0,0-26.3-3.45-35.73-13.42-9.43-9.97,19.96-142.58,90.02-115.44,0,0,62.29,5.68,44.61,75.89-17.68,70.21,5.55,74.11,5.55,74.11,0,0-6.99,2.1-10.11,1.58,0,0-4.27-2.5-4.74-5.17,0,0,.24,4.11,1.19,5.56,0,0-25.47-1.83-36.4-13.4-10.93-11.56-20.11-46.91-14.07-60.99Z"/>
    <path class="cls-23" d="m343.39,504.8l-2.53.35c-11.27,1.56-21.76-6.38-23.33-17.64l-1.83-13.22c-1.56-11.27,6.38-21.76,17.64-23.33l2.53-.35c11.27-1.56,21.76,6.38,23.33,17.64l1.83,13.22c1.56,11.27-6.38,21.76-17.64,23.33Z"/>
    <path class="cls-4" d="m350.61,610.81c-9.43,7.28-15.4,33.56-30.6,37.89-56.99,16.27-87.59-51.41-97.59-84.45,7.63-4.9,14.98-6.27,19.23-7,4.14-.7,8.51-1.25,12.13-1.62,6.22-5.29,14.84-26.08,15.36-57.71l2.75.59,46.09,10.12s-1.34,14.55-1.67,28.26c-.24,10.73-.59,13.29.24,14.57,3.59.59,7.81,9.76,7.81,9.76,0,0,0,.01.03.04.66.97,14.95,21.98,26.23,49.55Z"/>
    <path class="cls-5" d="m317.99,508.65s-1.35,14.54-1.67,28.26c-25.88-1.26-39.08-25.17-44.42-38.38l46.09,10.12Z"/>
    <g>
      <path class="cls-21" d="m552.4,747.67s-27.1,1-56.53,1.1c-3.48.02-7.01.02-10.51,0-23.97-.1-47.53-.94-57.55-3.53-9.79-2.52-47.46-28.05-77.61-58.98,0,0,0-.02,0-.02-2.34,5.57-4.1,9.83-4.15,10.17-.89,6.94-2.37,13.9-4.16,20.58-6.83,25.48-18.22,46.88-18.62,47.62l-16.14-.03-126.02-.18s23.8-36.67,17.41-130.59c-.16-2.38,21.94-78.16,21.94-78.16,0,0,17.17-3,37.02-4.6,1.87,1.71,5.73,51.56,30.55,54.45,4.04.47,29.94,40.04,29.94,40.04l7.85-40.42-9.28-53.63c11.91,3.49,18.44,4.74,28.34,8.7,6.74,2.7,12.32,7.67,15.8,14.04,17.35,31.7,73.64,133.94,79.39,136.32,5.38,2.23,25.66,6.28,47.11,10.2h.02c28.71,5.24,59.53,10.22,59.53,10.22l5.65,16.72Z"/>
      <path class="cls-21" d="m332.27,764.61l-9.02.03s.02-.03.03-.04h9Z"/>
    </g>
    <path class="cls-4" d="m325.67,522.5s-61.28-1.2-59.95-39.35c1.34-38.15-5.67-64,33.51-64.85s46.27,13.98,48.92,26.82c2.65,12.84-6.51,76.71-22.49,77.38Z"/>
    <path class="cls-23" d="m495.86,748.76c-3.48.02-7.01.02-10.51,0-23.97-.1-47.53-.94-57.55-3.53-9.79-2.52-47.46-28.05-77.61-58.98,0,0,0-.02,0-.02,0,0,6.36-24.34,9.1-28.42,2.74-4.08,13.56,35.52,38.82,51.64,25.27,16.11,64.81,27.4,84.01,22.84,12.93-3.08,14.26,8.55,13.75,16.47Z"/>
    <path class="cls-3" d="m313.63,501.27s.39,4.57,10.44,5.29c0,0,8.44.61,8.79-4.3,0,0-7.68-4.61-19.23-.98Z"/>
    <path class="cls-9" d="m316.95,516.7c-34.82-11-43.36-43.96-43.44-44.29l3.71-.92-1.86.46,1.86-.46c.08.31,8.16,31.23,40.89,41.57.22.07.44.14.66.2l-1.11,3.66c-.23-.07-.47-.14-.7-.22Z"/>
    <path class="cls-23" d="m320.89,519.28l-3.28-1.04c-1.67-.53-2.61-2.33-2.08-4h0c.53-1.67,2.33-2.61,4-2.08l3.28,1.04c1.67.53,2.61,2.33,2.08,4h0c-.53,1.67-2.33,2.61-4,2.08Z"/>
    <path class="cls-14" d="m329.15,413.24s-15.69,46.48-39.23,54.36c-23.54,7.88-31.34-1.45-31.34-1.45,0,0,17.34-15.93,19.33-41.71,0,0,38.03-30.21,51.23-11.2Z"/>
    <path class="cls-14" d="m299.85,426.92s31.95-1.79,41.5,7.3c6.89,6.56,6.73,9.99,7.26,18.73,0,0,13.97-21.55-.4-36.64-15.25-16-48.36,10.6-48.36,10.6Z"/>
    <path class="cls-14" d="m327.79,418.15s-8,44.47-37.25,60.62c0,0,28.33-29,28.83-58.01.5-29.01,8.42-2.61,8.42-2.61Z"/>
    <path class="cls-14" d="m222.23,507.97c9.42,9.97,35.72,13.42,35.72,13.42-1.2-1.66-2.22-5.09-2.22-5.09,13.52,10.96,46.72,3,46.72,3-26.48-5.85-17.91-44.07-8.9-45.7,5.25-28.82,15.66-64.71,20.54-80.83-1.17-.19-1.84-.25-1.84-.25-70.05-27.14-99.44,105.48-90.02,115.44Z"/>
    <g>
      <path class="cls-23" d="m279.76,500.88l-2.53.35c-11.27,1.56-21.76-6.38-23.33-17.64l-1.83-13.23c-1.56-11.27,6.38-21.76,17.64-23.33l2.53-.35c11.27-1.56,21.76,6.38,23.33,17.64l1.83,13.22c1.56,11.27-6.38,21.76-17.64,23.33Z"/>
      <path class="cls-23" d="m263.21,452.64c-1.5-2.82,3.77-24.73,11.53-41.71,3.75-8.21,13.21-19.21,19.96-22.04,2.44-1.02,5.68-.61,8.32,0,1.92.43,7.31,2.95,7.31,2.95-22.19,6.92-41.48,53.43-40.08,58.24-.04-.15-.1-.26-.15-.34l-6.89,2.91Z"/>
      <path class="cls-15" d="m274.67,487.73l-1.26.18c-5.61.78-10.84-3.18-11.62-8.79l-.91-6.59c-.78-5.61,3.18-10.84,8.79-11.62l1.26-.17c5.61-.78,10.84,3.18,11.62,8.79l.91,6.59c.78,5.61-3.18,10.84-8.79,11.62Z"/>
    </g>
    <path class="cls-4" d="m423.37,725.57s26.28-1.51,28.83-.13c4.15,2.24,18.26,11.33,20.48,13.97,2.21,2.64,8.01,13.24,8.01,13.24,0,0-2.51.7-3.64-.32-1.13-1.02-9.71-10.13-9.71-10.13l8.81,13.38s-3.04-.13-4.25-1.46-9.44-9.7-9.44-9.7l-2.8-.55s2.86,2.29,4.41,4.36c1.55,2.07,2.58,4.3,2.58,4.3,0,0-2.51-.42-3.29-.8-.78-.37-8.16-6.83-8.16-6.83l3.91,5.34s-2.64-.13-3.5-.72c-.87-.59-6.62-5.88-7.64-5.87-1.02.01-8.36-.29-11.51-1.96-3.15-1.67-13.04-5.5-13.04-5.5l-.03-10.61Z"/>
    <path class="cls-23" d="m261.11,543.72s-17.57,5.12-21.58,9.16c0,0,18.37,46.97,44.86,68.89l7.08-5.02v11.42l26.52,17.35s-58.24-87.59-56.88-101.8Z"/>
    <path class="cls-23" d="m341.89,716.99c-6.83,25.48-18.22,46.88-18.62,47.62h9s-9.02.04-9.02.04h-83.72s9.71-.02,9.69-.06c-.23-.85,14.16-39.85-9.69-55.83-23.9-16.01-32.56-55.38-32.56-55.38l76.03-18.57s31.33,45.71,40.25,54.43c6.85,6.69,22.8,7.19,22.8,7.19l-4.16,20.58Z"/>
    <path class="cls-23" d="m316.55,551.47s8.09,63.91,1.44,94.05c0,0,10.85-19.94,12.38-23.6l-1.83-10.96,7,2.43s-6.18-50.95-11.77-59.88c-5.59-8.93-7.65-9.8-7.65-9.8l.42,7.75Z"/>
    <path class="cls-4" d="m552.4,747.67s-33.91,1.25-67.05,1.1c-8.22-12.75,1.85-28.03,1.85-28.03h.02c28.71,5.24,59.53,10.22,59.53,10.22l5.65,16.72Z"/>
    <path class="cls-16" d="m555.61,764.64h-125.31c0-5.52,4.47-9.99,9.99-9.99h115.32v9.99Z"/>
    <polygon class="cls-23" points="748.98 628.16 702.52 764.64 507.52 764.64 555.25 628.16 748.98 628.16"/>
    <polygon class="cls-23" points="748.98 628.16 702.94 763.38 702.52 764.64 510.37 764.64 558.1 628.16 748.98 628.16"/>
    <path class="cls-22" d="m647.39,695.14c-1.2,5.21-6.41,9.44-11.62,9.44s-8.46-4.23-7.26-9.44c1.2-5.21,6.41-9.44,11.62-9.44s8.47,4.23,7.26,9.44Z"/>
    <polygon class="cls-16" points="748.98 628.16 702.94 763.38 614.66 763.38 722.3 628.16 748.98 628.16"/>
    <path class="cls-4" d="m423.4,736.19s-64.51,5.64-100.16,4.05v-35.03c23.36,6.45,100.13,20.37,100.13,20.37l.03,10.61Z"/>
    <path class="cls-21" d="m239.52,552.88s-36.89.84-48.31,13.17c-11.42,12.33,11.33,82.03,11.33,82.03,0,0,68.76,84.22,103.16,90.15,0,0,15.03,2.05,22.05,2.17,0,0-6.88-20.03,5.92-32.6,0,0-14.73-4.12-15.34-5.95-.61-1.83-78.81-148.97-78.81-148.97Z"/>
  </g>
  <g>
    <g>
      <path class="cls-8" d="m1781.13,394.16s-37.36-13.9-60.71,13.39c-13.38,15.65-98.97,178.81-97.95,193.09,1.02,14.28,9.18,21.43,9.18,21.43,0,0-3.57-12.5-.89-19,0,0-1.72,22,11.86,31.38,7.08,4.88,183.26-4.68,198.57-26.02,33.29-46.4-39.41-70.4-37.62-120.52,1.04-29.06,29.59-90.81-22.45-93.74Z"/>
      <path class="cls-23" d="m1816.74,498.08l-2.5.5c-11.15,2.25-22.11-5.03-24.37-16.17l-2.64-13.09c-2.25-11.15,5.03-22.11,16.17-24.37l2.5-.51c11.15-2.25,22.11,5.03,24.37,16.17l2.64,13.09c2.25,11.15-5.03,22.11-16.18,24.37Z"/>
      <path class="cls-23" d="m1976.59,764.39h-116.9c-19.83-31.47-37.26-73.97-41.32-107.07-1.94-15.7-.86-29.28,4.39-38.57,16.33-28.84-9.57-62.7-9.57-62.7,0,0,35.66,10.09,43.95,39.49,8.45,29.95,31.12,129.57,31.12,129.57l86.8,17.85c4.08,10.21,1.53,21.42,1.53,21.42Z"/>
      <path class="cls-15" d="m1976.59,764.39h-116.9c-19.83-31.47-37.26-73.97-41.32-107.07l17.34-5.31s21.94,100.14,34.7,101.67c12.75,1.53,106.18,10.71,106.18,10.71Z"/>
      <path class="cls-4" d="m1830.46,603.45c-8.96,7.85-20.53,14.79-35.44,20.05-55.88,19.74-83.36-26.27-95.38-58.63,7.32-5.36,14.57-7.18,18.77-8.17,4.09-.96,8.42-1.78,12.01-2.36,5.89-5.66,13.21-26.95,11.79-58.55l2.78.42,46.62,7.27s-.45,14.61.07,28.31c.42,10.72,1.44,20.9,3.74,23.16,3.62.37,5.79.63,5.79.63,0,0,0,.01.03.04.72.93,16.28,21.02,29.22,47.84Z"/>
      <path class="cls-5" d="m1791.61,503.49s-.46,14.6.07,28.31c-25.91.33-40.56-22.72-46.7-35.58l46.63,7.27Z"/>
      <path class="cls-23" d="m1852.68,652.01c-.13,1-12.59,41.51-12.72,42.53-4.32,33.91-12.15,70.1-12.15,70.1l-17.12-.03-112.97-.22s13.63-41.12-22.32-104.17c-1.18-2.07-2.41-4.16-3.7-6.27-5.12-8.41,27.18-98.32,27.18-98.32,0,0,14.14-2.5,33.99-4.1,1.88,1.71,15.66,52.13,40.6,53.67,32.56,2,20.22-54.18,20.22-54.18,13.26,2.66,18.04,3.63,35.07,11.79,0,0,24.6,83.65,23.91,89.19Z"/>
      <path class="cls-4" d="m1800.13,516.84s-61.24,2.57-62.25-35.59c-1.01-38.16-9.6-63.53,29.46-66.79,39.06-3.25,47.04,11.11,50.48,23.76,3.44,12.66-1.78,76.97-17.69,78.62Z"/>
      <path class="cls-3" d="m1786.81,496.39s.67,4.54,10.75,4.64c0,0,8.46.09,8.51-4.84,0,0-7.95-4.13-19.25.2Z"/>
      <path class="cls-9" d="m1791.07,511.59c-35.43-8.84-45.98-41.21-46.08-41.54l3.65-1.15-1.83.57,1.82-.58c.1.31,10.07,30.67,43.36,38.98.22.06.45.11.67.16l-.89,3.72c-.24-.06-.48-.11-.71-.17Z"/>
      <path class="cls-6" d="m1795.17,513.92l-3.34-.83c-1.7-.42-2.75-2.16-2.32-3.87h0c.42-1.7,2.16-2.75,3.87-2.32l3.34.83c1.7.42,2.75,2.16,2.32,3.87h0c-.42,1.7-2.16,2.75-3.87,2.32Z"/>
      <path class="cls-8" d="m1765.43,390.72s39.43-6.16,55.75,26.67c12.42,24.99,2.06,40.59-2.8,45.38,0,0-6.44-35.89-18.49-38.95,0,0-7.77-2.37-13.07,3.79-5.3,6.16-12.96,33.63-21.76,37.83,0,0-27.33,6.75-28.67-2.79-1.34-9.54-.59-39.22,6.29-44,6.89-4.78,22.75-27.93,22.75-27.93Z"/>
      <g>
        <path class="cls-23" d="m1752.98,498.08l-2.5.5c-11.15,2.25-22.11-5.03-24.37-16.17l-2.64-13.09c-2.25-11.15,5.03-22.11,16.17-24.37l2.5-.51c11.15-2.25,22.11,5.03,24.37,16.17l2.64,13.09c2.25,11.15-5.03,22.11-16.18,24.37Z"/>
        <path class="cls-23" d="m1733.5,450.95c-1.67-2.72-4.14-24.62,2.56-42.05,3.24-8.43,8.47-13.23,15.03-16.47,2.37-1.17,5.04-1.8,7.75-1.8l6.6.1c-21.73,8.27-26.76,52.51-25.07,57.23-.05-.15-.12-.25-.17-.33l-6.7,3.33Z"/>
        <path class="cls-15" d="m1743.13,458.4h1.27c5.69,0,10.3,4.62,10.3,10.3v6.65c0,5.69-4.62,10.3-10.3,10.3h-1.27c-5.69,0-10.3-4.62-10.3-10.3v-6.65c0-5.69,4.62-10.3,10.3-10.3Z" transform="translate(-58.95 354.76) rotate(-11.42)"/>
      </g>
      <path class="cls-15" d="m1697.72,764.39s13.63-41.12-22.32-104.17l13.39-16.73s23.71,67.15,53.34,86.73c29.57,19.54,64.36,15.46,68.56,34.39l-112.97-.22Z"/>
      <path class="cls-23" d="m1698.89,555.64s-24.38,2.12-40.7,30.96c-16.33,28.84-47.32,136.61-47.32,177.79h130.47s2.55-11.21-1.53-21.41l-80.74-15.58s48.6-72.16,49.11-103.28c.51-31.12-9.29-68.47-9.29-68.47Z"/>
      <path class="cls-4" d="m1742.13,751.14s25.42-2.49,29.63-1.34c4.21,1.15,16.26,6.12,18.94,7.84,2.68,1.72,7.84,6.75,7.84,6.75,0,0-3.25.62-5.17.19-1.91-.43-7.65-.81-9.18-.94-1.53-.13-7.02,1.01-7.02,1.01h-39.41l4.36-13.5Z"/>
    </g>
    <g>
      <path class="cls-8" d="m1972.34,764.64h-125.31c0-5.52,4.47-9.99,9.99-9.99h115.32v9.99Z"/>
      <polygon class="cls-16" points="2165.71 628.16 2119.24 764.64 1924.25 764.64 1971.98 628.16 2165.71 628.16"/>
      <polygon class="cls-16" points="2165.71 628.16 2119.67 763.38 2119.24 764.64 1927.1 764.64 1974.83 628.16 2165.71 628.16"/>
      <path class="cls-17" d="m2064.12,695.14c-1.2,5.21-6.41,9.44-11.62,9.44s-8.47-4.23-7.26-9.44c1.2-5.21,6.41-9.44,11.62-9.44s8.47,4.23,7.26,9.44Z"/>
      <polygon class="cls-8" points="2165.71 628.16 2119.67 763.38 2031.39 763.38 2139.03 628.16 2165.71 628.16"/>
    </g>
  </g>
</svg>