<?xml version="1.0" encoding="UTF-8"?>
<!DOCTYPE svg PUBLIC "-//W3C//DTD SVG 1.1//EN" "http://www.w3.org/Graphics/SVG/1.1/DTD/svg11.dtd">
<!-- Creator: CorelDRAW -->
<svg xmlns="http://www.w3.org/2000/svg" xml:space="preserve" width="3277.68mm" height="372.899mm" version="1.1" style="shape-rendering:geometricPrecision; text-rendering:geometricPrecision; image-rendering:optimizeQuality; fill-rule:evenodd; clip-rule:evenodd"
viewBox="0 0 92181.54 10487.42"
 xmlns:xlink="http://www.w3.org/1999/xlink"
 xmlns:xodm="http://www.corel.com/coreldraw/odm/2003">
 <defs>
  <style type="text/css">
   <![CDATA[
    .fil8 {fill:#BDBFC1}
    .fil0 {fill:#0098DD}
    .fil4 {fill:#F1BE98}
    .fil3 {fill:#F29E64}
    .fil2 {fill:#F38533}
    .fil1 {fill:#FEFDFD}
    .fil5 {fill:#FEFEFE;fill-rule:nonzero}
    .fil7 {fill:#727376;fill-rule:nonzero}
    .fil9 {fill:#F58634;fill-rule:nonzero}
    .fil6 {fill:#0098DD;fill-rule:nonzero}
   ]]>
  </style>
 </defs>
 <g id="Capa_x0020_1">
  <metadata id="CorelCorpID_0Corel-Layer"/>
  <g id="_2511194787744">
   <path class="fil0" d="M7034.59 8944.63l35.5 -14.92 0.17 -0.69c185.51,-81.77 364.34,-175.75 535.53,-281.11l1651.11 1633.51c82.9,83.96 164.7,215.78 297.55,205.42 171.42,-13.43 219.91,-161.23 219.95,-337.02l0.07 -3788.72c1.92,-990.64 48.36,-2108.34 -304.4,-3021.11l-4.4 1.62c-7.41,-23.68 -15.05,-47.5 -22.86,-71.06l-4.47 -11.28c-160.54,-402.55 -262.19,-583.86 -484.62,-918.49 -525.64,-790.57 -1338.18,-1395.07 -2244.4,-1698.05l-26.86 -8.86 -21.7 -7.05c-371.42,-121.37 -764.34,-195.24 -1171.55,-214.32 -31.23,-1.52 -62.42,-2.68 -93.52,-3.54l-4.47 -0.13c-145.62,-3.87 -289.98,-0.43 -432.88,10.12 -1328.42,94.48 -2495.6,772.41 -3246.78,1779.16 -116.08,150.41 -223.36,317.2 -320.21,494.84 -237.97,426.86 -407.67,896.99 -494.51,1395.57 -35,187.96 -57.13,373.87 -64.84,553.06 -2.71,78.27 -3.14,156.76 -1.36,235.36l0.26 0c0.36,77.51 2.91,154.48 7.18,231 186.87,36.59 350.98,167.42 419.91,358.62l542.21 1503.9c68.31,189.42 26.89,392.89 -91.1,539.99 647.8,870.23 1606.16,1495.57 2711.08,1711.65 100.46,-105.66 242.21,-171.75 398.64,-171.75l932.78 0c155.38,0 296.23,65.23 396.59,169.63 308.07,-61.16 604.73,-154.15 886.37,-275.36z"/>
   <path class="fil1" d="M7353.87 6952.87c208.47,101.88 1052.63,1085.41 1296.1,1234.57 5.29,-1040.95 0.63,-2083.2 0.5,-3124.21 0,-1161.86 -161.89,-1753.52 -807.08,-2347.47 -1863.81,-1716.01 -5428.39,-459.91 -5868.58,1984.12 -470.06,2609.66 2696.79,3867.91 4887.46,2573.11 183.59,-108.47 325.11,-215.51 491.6,-320.11z"/>
   <path class="fil2" d="M3326.08 5058.12c-664.27,259.71 -266.13,1123.42 321.07,928.12 589.28,-195.9 303.74,-1172.38 -321.07,-928.12z"/>
   <path class="fil3" d="M5104.42 4419.65c-556.66,224.97 -269.1,1127.19 357.39,892.39 574.93,-215.38 254.35,-1139.56 -357.39,-892.39z"/>
   <path class="fil4" d="M6949.8 3742.87c-598.64,167.42 -356.2,1109.66 286.3,922.96 543.7,-157.96 344.66,-1099.47 -286.3,-922.96z"/>
   <path class="fil2" d="M5278.35 0c-2681.35,0 -4854.98,2174.23 -4854.98,4856.31 0,215.42 14.29,427.46 41.48,635.46l-180.98 65.26c-222.36,80.15 -338.67,327.66 -258.52,550.02l417.1 1156.87c80.19,222.36 327.66,338.67 550.02,258.48l184.55 -66.52c738.21,1162.92 1957.23,1990.47 3377.31,2202.88 28.22,191.79 194.48,340.26 393.78,340.26l674.23 0c218.92,0 398.02,-179.09 398.02,-398.02 0,-218.92 -179.09,-398.02 -398.02,-398.02l-674.23 0c-170.49,0 -316.84,108.63 -373.24,260.11 -1345.25,-203.84 -2501.56,-983.23 -3210.36,-2079.19 186.34,-98.15 277.51,-322.59 204.17,-526.03l-417.1 -1156.87c-73.8,-204.76 -289.48,-319.58 -496.79,-273.9 -22.83,-187.1 -34.87,-377.51 -34.87,-570.79 0,-2573.47 2085.64,-4659.68 4658.42,-4659.68 2021.6,0 3742.18,1288.22 4386.7,3088.65l120.31 -43.4 2.58 -0.89 62.06 -22.4 62.06 -22.36c55.14,-19.88 84.02,-81.24 64.11,-136.42l-88.22 -244.69c-19.88,-55.18 -81.24,-83.99 -136.42,-64.11l-83.03 29.94c-777.97,-1643.83 -2451.14,-2780.95 -4390.15,-2780.95z"/>
  </g>
  <path class="fil5" d="M15091.95 9484.14c-128.92,0 -243.56,-28.27 -343.91,-84.83 -100.34,-56.56 -178.8,-135.32 -235.36,-236.27 -56.56,-100.95 -84.86,-215.29 -84.86,-343.02 0,-127.7 28.3,-242.04 84.86,-342.99 56.56,-100.95 135.02,-179.71 235.36,-236.27 100.34,-56.56 214.99,-84.83 343.91,-84.83 91.23,0 176.67,16.7 256.34,50.16 79.67,33.46 151.14,82.4 214.38,146.88l-122.24 109.46c-90.02,-93.66 -204.33,-140.48 -342.99,-140.48 -96.09,0 -181.25,20.98 -255.45,62.94 -74.18,41.96 -131.95,100.65 -173.31,176.06 -41.35,75.41 -62.05,161.76 -62.05,259.07 0,97.31 20.7,183.68 62.05,259.1 41.35,75.39 99.13,134.08 173.31,176.06 74.2,41.96 159.36,62.94 255.45,62.94 66.89,0 131.35,-12.48 193.37,-37.4 62.06,-24.93 116.16,-59.9 162.4,-104.9l116.77 118.59c-128.94,126.49 -288.28,189.73 -478.03,189.73zm1060.03 -5.46c-93.66,0 -176.67,-20.37 -249.05,-61.12 -72.35,-40.75 -128.31,-97 -167.84,-168.77 -39.53,-71.75 -59.3,-152.02 -59.3,-240.83 0,-88.78 19.77,-169.08 59.3,-240.83 39.53,-71.77 95.49,-128.03 167.84,-168.78 72.38,-40.74 155.39,-61.12 249.05,-61.12 93.66,0 176.37,20.37 248.14,61.12 71.75,40.75 127.4,97.01 166.93,168.78 39.53,71.75 59.3,152.05 59.3,240.83 0,88.8 -19.77,169.08 -59.3,240.83 -39.53,71.77 -95.18,128.03 -166.93,168.77 -71.77,40.75 -154.48,61.12 -248.14,61.12zm-306.53 -470.72c0,57.17 12.78,109.78 38.32,157.82 25.56,48.06 61.42,86.05 107.66,114.04 46.21,27.96 99.74,41.96 160.55,41.96 59.6,0 112.52,-14 158.73,-41.96 46.21,-27.99 82.1,-65.98 107.63,-114.04 25.56,-48.03 38.32,-100.65 38.32,-157.82 0,-57.17 -12.75,-109.78 -38.32,-157.82 -25.53,-48.03 -61.42,-86.05 -107.63,-114.03 -46.21,-27.97 -99.13,-41.96 -158.73,-41.96 -60.82,0 -114.34,13.99 -160.55,41.96 -46.24,27.99 -82.1,66 -107.66,114.03 -25.54,48.03 -38.32,100.65 -38.32,157.82zm983.43 -450.65l151.42 0 1.85 125.88c38.9,-46.21 85.74,-81.49 140.48,-105.81 54.72,-24.32 114.95,-36.49 180.62,-36.49 77.85,0 145.95,17.03 204.33,51.1 58.39,34.06 103.41,82.7 135.01,145.95 31.63,63.24 47.45,136.84 47.45,220.78l0 499.9 -169.69 0 0 -488.97c0,-86.35 -21.28,-153.26 -63.85,-200.69 -42.57,-47.45 -102.19,-71.16 -178.8,-71.16 -81.52,0 -148.4,26.47 -200.72,79.36 -52.29,52.92 -78.45,120.11 -78.45,201.63l0 479.83 -169.66 0 0 -901.3zm1483.3 914.08c-93.64,0 -164.5,-26.47 -212.53,-79.36 -48.06,-52.92 -72.08,-130.46 -72.08,-232.63l0 -454.3 -176.98 0 0 -147.79 176.98 0 0 -242.65 167.84 -18.25 0 260.89 273.67 0 0 147.79 -273.67 0 0 454.3c0,52.29 10.96,91.82 32.85,118.59 21.89,26.75 56.56,40.14 103.99,40.14 36.49,0 77.24,-9.74 122.26,-29.21l49.25 140.51c-63.24,27.97 -127.09,41.96 -191.58,41.96zm738.93 7.29c-87.59,0 -165.43,-20.07 -233.54,-60.21 -68.13,-40.14 -121.32,-95.79 -159.64,-166.96 -38.32,-71.14 -57.47,-152.33 -57.47,-243.56 0,-91.23 19.16,-172.42 57.47,-243.56 38.32,-71.16 91.51,-126.82 159.64,-166.95 68.1,-40.14 145.95,-60.21 233.54,-60.21 72.96,0 139.27,13.69 198.87,41.05 59.6,27.38 107.63,64.76 144.13,112.21l1.82 -133.19 149.62 0 0 901.3 -149.62 0 -1.82 -133.2c-36.49,47.45 -84.53,84.86 -144.13,112.21 -59.6,27.36 -125.91,41.05 -198.87,41.05zm-280.99 -470.72c0,60.82 12.78,114.95 38.32,162.37 25.56,47.45 61.42,84.55 107.66,111.3 46.21,26.75 98.52,40.14 156.91,40.14 88.78,0 161.46,-29.18 218.03,-87.57 56.56,-58.38 84.83,-133.8 84.83,-226.25 0,-92.45 -28.27,-167.86 -84.83,-226.25 -56.56,-58.36 -129.25,-87.56 -218.03,-87.56 -58.38,0 -110.7,13.39 -156.91,40.14 -46.24,26.75 -82.1,63.85 -107.66,111.3 -25.53,47.43 -38.32,101.56 -38.32,162.37zm1455.97 470.72c-93.66,0 -176.37,-19.46 -248.14,-58.39 -71.75,-38.92 -127.7,-93.97 -167.84,-165.11 -40.14,-71.16 -60.21,-153.57 -60.21,-247.23 0,-92.45 20.07,-174.24 60.21,-245.38 40.14,-71.16 96.09,-126.51 167.84,-166.04 71.77,-39.53 153.87,-59.3 246.32,-59.3 128.92,0 241.43,46.21 337.53,138.66l-105.81 113.13c-30.42,-30.42 -65.39,-53.83 -104.92,-70.25 -39.53,-16.42 -81.19,-24.63 -124.97,-24.63 -58.39,0 -111,13.08 -157.82,39.23 -46.84,26.14 -83.31,62.94 -109.48,110.39 -26.14,47.43 -39.23,102.17 -39.23,164.19 0,93.66 28.6,169.39 85.77,227.16 57.17,57.78 130.74,86.66 220.76,86.66 46.21,0 89.99,-8.81 131.37,-26.45 41.35,-17.64 77.24,-42.26 107.63,-73.9l105.81 116.77c-48.64,48.64 -101.25,84.22 -157.82,106.72 -56.53,22.5 -118.89,33.76 -187,33.76zm912.24 -7.29c-93.64,0 -164.5,-26.47 -212.53,-79.36 -48.06,-52.92 -72.08,-130.46 -72.08,-232.63l0 -454.3 -176.98 0 0 -147.79 176.98 0 0 -242.65 167.84 -18.25 0 260.89 273.67 0 0 147.79 -273.67 0 0 454.3c0,52.29 10.96,91.82 32.85,118.59 21.89,26.75 56.56,40.14 103.99,40.14 36.49,0 77.24,-9.74 122.26,-29.21l49.25 140.51c-63.24,27.97 -127.09,41.96 -191.58,41.96zm1428.59 12.75c-128.91,0 -243.56,-28.27 -343.9,-84.83 -100.34,-56.56 -178.8,-135.32 -235.36,-236.27 -56.56,-100.95 -84.86,-215.29 -84.86,-343.02 0,-127.7 28.29,-242.04 84.86,-342.99 56.56,-100.95 135.02,-179.71 235.36,-236.27 100.34,-56.56 214.99,-84.83 343.9,-84.83 91.23,0 176.67,16.7 256.34,50.16 79.67,33.46 151.14,82.4 214.38,146.88l-122.24 109.46c-90.02,-93.66 -204.33,-140.48 -342.99,-140.48 -96.09,0 -181.25,20.98 -255.45,62.94 -74.18,41.96 -131.95,100.65 -173.31,176.06 -41.35,75.41 -62.05,161.76 -62.05,259.07 0,97.31 20.7,183.68 62.05,259.1 41.35,75.39 99.13,134.08 173.31,176.06 74.2,41.96 159.36,62.94 255.45,62.94 66.89,0 131.35,-12.48 193.37,-37.4 62.06,-24.93 116.16,-59.9 162.4,-104.9l116.77 118.59c-128.94,126.49 -288.28,189.73 -478.03,189.73zm1063.68 -1.82c-96.09,0 -180.32,-19.46 -252.69,-58.38 -72.35,-38.92 -128.31,-94.27 -167.84,-166.02 -39.53,-71.77 -59.3,-155.08 -59.3,-249.96 0,-91.23 19.46,-172.42 58.39,-243.56 38.92,-71.16 93.03,-126.51 162.37,-166.04 69.32,-39.53 149.62,-59.29 240.83,-59.29 144.76,0 257.86,41.96 339.35,125.91 81.52,83.92 122.26,200.08 122.26,348.46 0,26.77 -0.61,47.45 -1.82,62.03l-746.22 0c8.5,77.85 40.44,138.99 95.76,183.38 55.35,44.39 126.21,66.58 212.56,66.58 54.74,0 107.35,-9.72 157.82,-29.18 50.49,-19.46 89.11,-45.02 115.86,-76.63l109.48 103.99c-42.57,49.88 -98.22,88.8 -166.95,116.77 -68.71,27.96 -142,41.96 -219.85,41.96zm280.96 -550.99c-7.29,-72.99 -37.08,-131.37 -89.39,-175.15 -52.31,-43.78 -120.41,-65.68 -204.36,-65.68 -79.06,0 -143.82,20.98 -194.29,62.94 -50.49,41.96 -82.43,101.25 -95.79,177.89l583.82 0zm357.62 -374.02l151.42 0 1.84 125.88c38.9,-46.21 85.74,-81.49 140.48,-105.81 54.71,-24.32 114.95,-36.49 180.62,-36.49 77.85,0 145.95,17.03 204.33,51.1 58.38,34.06 103.41,82.7 135.01,145.95 31.63,63.24 47.45,136.84 47.45,220.78l0 499.9 -169.69 0 0 -488.97c0,-86.35 -21.28,-153.26 -63.85,-200.69 -42.57,-47.45 -102.19,-71.16 -178.8,-71.16 -81.52,0 -148.4,26.47 -200.72,79.36 -52.29,52.92 -78.45,120.11 -78.45,201.63l0 479.83 -169.66 0 0 -901.3zm1483.3 914.08c-93.64,0 -164.5,-26.47 -212.53,-79.36 -48.06,-52.92 -72.08,-130.46 -72.08,-232.63l0 -454.3 -176.98 0 0 -147.79 176.98 0 0 -242.65 167.84 -18.25 0 260.89 273.67 0 0 147.79 -273.67 0 0 454.3c0,52.29 10.96,91.82 32.85,118.59 21.89,26.75 56.56,40.14 103.99,40.14 36.49,0 77.24,-9.74 122.26,-29.21l49.25 140.51c-63.24,27.97 -127.09,41.96 -191.58,41.96zm768.11 10.93c-96.09,0 -180.32,-19.46 -252.7,-58.38 -72.35,-38.92 -128.31,-94.27 -167.84,-166.02 -39.53,-71.77 -59.3,-155.08 -59.3,-249.96 0,-91.23 19.46,-172.42 58.39,-243.56 38.92,-71.16 93.03,-126.51 162.37,-166.04 69.32,-39.53 149.62,-59.29 240.83,-59.29 144.76,0 257.86,41.96 339.35,125.91 81.51,83.92 122.26,200.08 122.26,348.46 0,26.77 -0.61,47.45 -1.82,62.03l-746.22 0c8.5,77.85 40.44,138.99 95.76,183.38 55.35,44.39 126.21,66.58 212.56,66.58 54.74,0 107.35,-9.72 157.82,-29.18 50.49,-19.46 89.11,-45.02 115.86,-76.63l109.48 103.99c-42.57,49.88 -98.22,88.8 -166.96,116.77 -68.71,27.96 -142,41.96 -219.85,41.96zm280.96 -550.99c-7.29,-72.99 -37.08,-131.37 -89.39,-175.15 -52.31,-43.78 -120.41,-65.68 -204.36,-65.68 -79.06,0 -143.82,20.98 -194.29,62.94 -50.49,41.96 -82.43,101.25 -95.79,177.89l583.82 0zm357.62 -374.02l151.41 0 1.85 151.44c35.25,-57.17 76.3,-99.43 123.15,-126.82 46.82,-27.36 100.04,-41.05 159.64,-41.05 42.57,0 83.31,6.4 122.24,19.16 38.92,12.78 71.77,30.12 98.52,52.01l-76.63 142.3c-48.64,-31.64 -99.74,-47.43 -153.26,-47.43 -77.84,0 -140.18,28.27 -187,84.83 -46.82,56.56 -70.25,131.07 -70.25,223.49l0 443.36 -169.66 0 0 -901.3zm1238.8 -375.84l162.4 0 505.37 656.81 505.39 -656.81 162.37 0 0 1277.15 -175.13 0 0 -974.29 -472.57 611.2 -40.14 0 -470.72 -611.2 0 974.29 -176.98 0 0 -1277.15zm2001.5 1297.22c-87.59,0 -165.43,-20.07 -233.54,-60.21 -68.13,-40.14 -121.32,-95.79 -159.64,-166.96 -38.31,-71.14 -57.47,-152.33 -57.47,-243.56 0,-91.23 19.16,-172.42 57.47,-243.56 38.32,-71.16 91.51,-126.82 159.64,-166.95 68.11,-40.14 145.95,-60.21 233.54,-60.21 72.96,0 139.27,13.69 198.87,41.05 59.6,27.38 107.63,64.76 144.13,112.21l1.82 -133.19 149.62 0 0 901.3 -149.62 0 -1.82 -133.2c-36.49,47.45 -84.53,84.86 -144.13,112.21 -59.6,27.36 -125.91,41.05 -198.87,41.05zm-280.99 -470.72c0,60.82 12.78,114.95 38.32,162.37 25.56,47.45 61.42,84.55 107.66,111.3 46.21,26.75 98.52,40.14 156.91,40.14 88.78,0 161.46,-29.18 218.03,-87.57 56.56,-58.38 84.83,-133.8 84.83,-226.25 0,-92.45 -28.27,-167.86 -84.83,-226.25 -56.56,-58.36 -129.25,-87.56 -218.03,-87.56 -58.39,0 -110.7,13.39 -156.91,40.14 -46.24,26.75 -82.1,63.85 -107.66,111.3 -25.54,47.43 -38.32,101.56 -38.32,162.37zm1039.99 -450.65l151.42 0 1.85 125.88c38.9,-46.21 85.74,-81.49 140.48,-105.81 54.72,-24.32 114.95,-36.49 180.62,-36.49 77.85,0 145.95,17.03 204.33,51.1 58.39,34.06 103.41,82.7 135.01,145.95 31.63,63.24 47.45,136.84 47.45,220.78l0 499.9 -169.69 0 0 -488.97c0,-86.35 -21.28,-153.26 -63.85,-200.69 -42.57,-47.45 -102.19,-71.16 -178.8,-71.16 -81.52,0 -148.4,26.47 -200.72,79.36 -52.29,52.92 -78.45,120.11 -78.45,201.63l0 479.83 -169.66 0 0 -901.3zm1501.57 921.37c-87.59,0 -165.43,-20.07 -233.54,-60.21 -68.13,-40.14 -121.32,-95.79 -159.64,-166.96 -38.32,-71.14 -57.47,-152.33 -57.47,-243.56 0,-91.23 19.16,-172.42 57.47,-243.56 38.31,-71.16 91.51,-126.82 159.64,-166.95 68.11,-40.14 145.95,-60.21 233.54,-60.21 72.96,0 139.27,13.69 198.87,41.05 59.6,27.38 107.63,64.76 144.13,112.21l1.82 -133.19 149.62 0 0 901.3 -149.62 0 -1.82 -133.2c-36.49,47.45 -84.53,84.86 -144.13,112.21 -59.6,27.36 -125.91,41.05 -198.87,41.05zm-280.99 -470.72c0,60.82 12.78,114.95 38.32,162.37 25.56,47.45 61.42,84.55 107.66,111.3 46.21,26.75 98.52,40.14 156.91,40.14 88.78,0 161.46,-29.18 218.03,-87.57 56.56,-58.38 84.83,-133.8 84.83,-226.25 0,-92.45 -28.27,-167.86 -84.83,-226.25 -56.56,-58.36 -129.25,-87.56 -218.03,-87.56 -58.39,0 -110.7,13.39 -156.91,40.14 -46.24,26.75 -82.1,63.85 -107.66,111.3 -25.54,47.43 -38.32,101.56 -38.32,162.37zm1459.62 994.36c-94.88,0 -178.19,-16.42 -249.96,-49.27 -71.75,-32.82 -126.49,-79.06 -164.2,-138.66 -37.71,-59.6 -55.35,-127.7 -52.92,-204.33l167.86 0c-2.43,70.53 24.02,127.4 79.37,170.57 55.35,43.2 128.61,64.79 219.85,64.79 91.23,0 164.5,-18.85 219.85,-56.56 55.35,-37.71 83.03,-88.2 83.03,-151.44 0,-60.82 -26.77,-109.46 -80.3,-145.95 -53.5,-36.49 -126.49,-54.74 -218.94,-54.74 -97.31,0 -182.44,-18.25 -255.43,-54.74 -72.96,-36.49 -129.22,-88.48 -168.75,-156 -39.53,-67.49 -59.29,-146.25 -59.29,-236.27 0,-85.13 20.68,-161.77 62.03,-229.89 41.35,-68.1 98.22,-121.63 170.57,-160.55 72.38,-38.92 154.17,-58.38 245.41,-58.38 103.38,0 188.54,21.28 255.43,63.85l116.77 -140.48 122.24 94.88 -124.06 145.97c40.14,47.43 68.71,93.03 85.74,136.84 17.03,43.78 25.56,93.03 25.56,147.77 0,83.92 -21.31,156.91 -63.88,218.94 -42.57,62.03 -103.38,108.87 -182.44,140.48 76.63,25.56 135.63,63.27 176.98,113.13 41.35,49.88 62.03,108.26 62.03,175.15 0,72.99 -19.46,137.14 -58.39,192.49 -38.92,55.35 -93.97,97.91 -165.11,127.7 -71.16,29.81 -154.17,44.72 -249.05,44.72zm-310.17 -1012.61c0,87.59 28.6,158.12 85.77,211.65 57.17,53.53 131.95,80.28 224.4,80.28 91.23,0 165.74,-27.06 223.49,-81.19 57.78,-54.13 86.68,-124.36 86.68,-210.74 0,-87.56 -28.29,-158.12 -84.83,-211.65 -56.56,-53.5 -131.68,-80.27 -225.34,-80.27 -92.45,0 -167.23,27.08 -224.4,81.19 -57.17,54.13 -85.77,124.39 -85.77,210.74zm1423.12 492.61c-96.09,0 -180.32,-19.46 -252.7,-58.38 -72.35,-38.92 -128.31,-94.27 -167.84,-166.02 -39.53,-71.77 -59.29,-155.08 -59.29,-249.96 0,-91.23 19.46,-172.42 58.38,-243.56 38.92,-71.16 93.03,-126.51 162.37,-166.04 69.32,-39.53 149.62,-59.29 240.83,-59.29 144.76,0 257.86,41.96 339.35,125.91 81.52,83.92 122.26,200.08 122.26,348.46 0,26.77 -0.6,47.45 -1.82,62.03l-746.22 0c8.5,77.85 40.44,138.99 95.76,183.38 55.35,44.39 126.21,66.58 212.56,66.58 54.74,0 107.35,-9.72 157.82,-29.18 50.49,-19.46 89.11,-45.02 115.86,-76.63l109.48 103.99c-42.57,49.88 -98.22,88.8 -166.96,116.77 -68.71,27.96 -142,41.96 -219.85,41.96zm280.96 -550.99c-7.29,-72.99 -37.08,-131.37 -89.39,-175.15 -52.31,-43.78 -120.41,-65.68 -204.36,-65.68 -79.06,0 -143.82,20.98 -194.29,62.94 -50.49,41.96 -82.43,101.25 -95.79,177.89l583.82 0zm357.62 -374.02l151.42 0 1.85 151.44c35.25,-57.17 76.3,-99.43 123.15,-126.82 46.82,-27.36 100.04,-41.05 159.64,-41.05 42.57,0 83.31,6.4 122.24,19.16 38.92,12.78 71.77,30.12 98.52,52.01l-76.63 142.3c-48.64,-31.64 -99.74,-47.43 -153.26,-47.43 -77.84,0 -140.18,28.27 -187,84.83 -46.82,56.56 -70.25,131.07 -70.25,223.49l0 443.36 -169.66 0 0 -901.3z"/>
  <path class="fil6" d="M12791.42 2564.56c523.81,-523.79 1155.44,-785.69 1894.94,-785.69 739.48,0 1371.13,261.9 1894.92,785.69 523.8,523.8 785.69,1155.44 785.69,1894.92l0 2831.89 -596.63 -302.51 0 -848.73c-246.49,313.71 -551.79,558.81 -915.94,735.27 -364.13,176.46 -753.49,264.71 -1168.04,264.71 -739.5,0 -1371.13,-261.9 -1894.94,-785.69 -523.8,-523.81 -785.69,-1155.44 -785.69,-1894.94 0,-739.48 261.9,-1371.13 785.69,-1894.92zm3369.69 420.17c-406.16,-406.16 -897.75,-609.25 -1474.75,-609.25 -577.02,0 -1068.61,203.09 -1474.77,609.25 -406.16,406.16 -609.23,897.73 -609.23,1474.75 0,577.02 203.07,1068.62 609.23,1474.77 406.16,406.16 897.75,609.23 1474.77,609.23 577,0 1068.59,-203.07 1474.75,-609.23 406.16,-406.16 609.23,-897.75 609.23,-1474.77 0,-577.02 -203.07,-1068.59 -609.23,-1474.75zm1810.9 -1205.86l596.61 0 0 3722.62c0,285.71 102.25,530.79 306.71,735.27 204.49,204.48 449.58,306.72 735.3,306.72 280.11,0 523.8,-103.63 731.07,-310.92 207.29,-207.27 310.92,-450.96 310.92,-731.07l0 -3722.62 596.63 294.1 0 3428.52c0,285.71 102.23,530.79 306.72,735.27 204.48,204.48 449.58,306.72 735.27,306.72 280.11,0 523.81,-103.63 731.09,-310.92 207.27,-207.27 310.92,-450.96 310.92,-731.07l0 -3722.62 588.22 0 0 3722.62c0,448.17 -161.06,833.32 -483.18,1155.44 -322.12,322.12 -704.46,483.18 -1147.05,483.18 -274.49,0 -529.39,-63.03 -764.69,-189.08 -235.29,-126.05 -428.56,-298.31 -579.81,-516.8 -151.26,212.89 -344.54,383.76 -579.83,512.62 -235.27,128.84 -487.39,193.27 -756.28,193.27 -448.17,0 -833.32,-161.06 -1155.44,-483.18 -322.12,-322.12 -483.18,-707.28 -483.18,-1155.44l0 -3722.62zm7340.2 785.69c523.81,-523.79 1155.44,-785.69 1894.94,-785.69 739.48,0 1371.12,261.9 1894.92,785.69 523.8,523.8 785.69,1155.44 785.69,1894.92l0 2831.89 -596.63 -302.51 0 -848.73c-246.49,313.71 -551.8,558.81 -915.94,735.27 -364.13,176.46 -753.49,264.71 -1168.03,264.71 -739.5,0 -1371.13,-261.9 -1894.94,-785.69 -523.8,-523.81 -785.69,-1155.44 -785.69,-1894.94 0,-739.48 261.9,-1371.13 785.69,-1894.92zm3369.69 420.17c-406.16,-406.16 -897.75,-609.25 -1474.75,-609.25 -577.03,0 -1068.62,203.09 -1474.77,609.25 -406.16,406.16 -609.23,897.73 -609.23,1474.75 0,577.02 203.07,1068.62 609.23,1474.77 406.16,406.16 897.75,609.23 1474.77,609.23 577,0 1068.59,-203.07 1474.75,-609.23 406.16,-406.16 609.23,-897.75 609.23,-1474.77 0,-577.02 -203.07,-1068.59 -609.23,-1474.75zm2063 1180.65c0,-661.06 232.48,-1224.07 697.47,-1689.06 464.97,-464.97 1027.98,-697.45 1689.04,-697.45l243.7 0 0 596.61 -243.7 0c-498.58,0 -921.54,175.07 -1268.9,525.21 -347.33,350.14 -520.98,771.7 -520.98,1264.69l0 2974.74 -596.63 302.51 0 -3277.25zm5243.61 2974.74c-739.5,0 -1371.13,-261.9 -1894.94,-785.69 -523.8,-523.81 -785.69,-1155.44 -785.69,-1894.94 0,-739.48 261.9,-1371.13 785.69,-1894.92 523.81,-523.79 1155.44,-785.69 1894.94,-785.69 739.48,0 1371.12,261.9 1894.92,785.69 523.8,523.8 785.69,1155.44 785.69,1894.92 0,61.64 -2.79,109.25 -8.39,142.87l-4747.83 0c33.62,543.4 250.7,1002.77 651.26,1378.12 400.56,375.35 875.33,563.01 1424.36,563.01 336.11,0 652.65,-77.02 949.56,-231.09 296.91,-154.05 543.4,-365.54 739.48,-634.44l697.47 0c-224.09,442.57 -550.42,796.91 -978.98,1063.02 -428.58,266.1 -897.75,399.14 -1407.53,399.14zm-2033.58 -3134.4l4067.14 0c-100.84,-470.59 -341.73,-859.92 -722.66,-1168.06 -380.95,-308.11 -817.92,-462.18 -1310.9,-462.18 -493.01,0 -929.98,154.07 -1310.9,462.18 -380.95,308.13 -621.84,697.47 -722.68,1168.06z"/>
  <path class="fil7" d="M15353.62 8931.44l195.96 49.51c-40.91,160.55 -114.48,282.6 -220.72,366.83 -106.23,84.23 -236.19,126.52 -389.86,126.52 -158.83,0 -288.1,-32.31 -387.8,-97.29 -99.7,-64.63 -175.34,-158.49 -227.25,-281.23 -51.91,-123.08 -78.04,-254.75 -78.04,-395.71 0,-153.68 29.22,-287.76 88.01,-402.24 58.79,-114.48 142.33,-201.46 250.63,-260.94 108.3,-59.48 227.59,-89.04 357.55,-89.04 147.83,0 271.94,37.47 372.33,112.76 100.73,75.29 170.87,180.84 210.4,316.98l-191.84 45.38c-34.04,-107.26 -83.89,-185.65 -148.86,-234.47 -64.98,-49.16 -146.8,-73.57 -245.47,-73.57 -113.11,0 -208,27.16 -283.98,81.48 -75.98,54.32 -129.61,127.55 -160.21,219 -30.94,91.79 -46.41,186.34 -46.41,283.63 0,125.48 18.22,235.16 54.66,328.67 36.44,93.86 93.17,163.65 170.18,210.06 77.01,46.41 160.21,69.45 249.94,69.45 109.33,0 201.47,-31.63 277.1,-94.54 75.64,-63.26 126.86,-156.77 153.68,-281.23zm346.89 -17.19c0,-197.68 55.01,-344.14 165.37,-439.37 91.79,-79.07 204.21,-118.61 336.58,-118.61 146.8,0 267.13,48.13 360.64,144.39 93.17,95.92 139.93,228.97 139.93,398.46 0,137.52 -20.63,245.47 -61.88,324.2 -41.26,78.73 -101.42,139.93 -180.49,183.59 -78.73,43.66 -165.02,65.32 -258.19,65.32 -149.9,0 -270.91,-47.79 -363.39,-143.71 -92.48,-95.92 -138.55,-234.12 -138.55,-414.27zm185.65 0.34c0,136.83 29.91,239.28 89.73,307.01 60.16,68.07 135.46,102.11 226.56,102.11 90.08,0 165.02,-34.04 225.19,-102.45 59.82,-68.42 89.73,-172.59 89.73,-312.51 0,-132.02 -30.25,-232.06 -90.42,-299.79 -60.17,-68.07 -135.11,-102.11 -224.5,-102.11 -91.1,0 -166.4,33.69 -226.56,101.42 -59.82,67.73 -89.73,169.84 -89.73,306.32zm1029.67 534.95l0 -1070.58 162.96 0 0 151.96c78.39,-116.55 191.84,-174.65 340.02,-174.65 64.63,0 123.77,11.69 177.74,34.72 53.98,23.03 94.54,53.63 121.36,91.1 26.82,37.48 45.72,82.17 56.38,133.74 6.53,33.69 9.97,92.48 9.97,176.37l0 657.34 -181.52 0 0 -650.46c0,-73.92 -6.88,-129.27 -20.97,-165.71 -14.1,-36.44 -39.19,-65.66 -74.95,-87.67 -35.75,-21.66 -78.04,-32.66 -126.17,-32.66 -77.01,0 -143.36,24.41 -199.4,73.57 -56.04,48.82 -83.89,141.99 -83.89,278.82l0 584.11 -181.53 0zm1541.24 -161.93l24.75 160.21c-50.88,10.66 -96.61,16.16 -136.49,16.16 -65.67,0 -116.55,-10.31 -152.99,-31.29 -36.1,-20.97 -61.54,-48.13 -76.32,-82.17 -14.78,-34.04 -22,-105.55 -22,-214.53l0 -616.77 -134.08 0 0 -140.27 134.08 0 0 -264.72 181.52 -108.98 0 373.71 181.53 0 0 140.27 -181.53 0 0 627.09c0,51.91 3.1,85.26 9.63,100.04 6.19,14.78 16.5,26.47 30.94,35.41 14.44,8.59 35.07,13.07 61.88,13.07 19.94,0 46.41,-2.41 79.07,-7.22zm878.4 27.85c-67.38,57.42 -132.36,97.64 -194.59,121.36 -62.23,23.72 -128.92,35.41 -200.43,35.41 -117.58,0 -208,-28.53 -271.25,-85.95 -63.26,-57.07 -94.89,-130.3 -94.89,-219.34 0,-52.26 12.03,-100.04 35.76,-143.36 24.07,-43.32 55.35,-77.7 93.86,-103.83 38.85,-26.13 82.17,-46.07 130.64,-59.48 35.76,-9.28 89.73,-18.22 161.59,-27.16 146.46,-17.19 254.75,-38.16 323.86,-62.23 0.69,-24.75 1.03,-40.57 1.03,-47.1 0,-73.57 -17.19,-125.49 -51.57,-155.74 -46.41,-40.91 -115.52,-61.19 -206.96,-61.19 -85.61,0 -148.87,15.13 -189.43,45.04 -40.91,29.91 -70.82,82.85 -90.42,159.18l-177.4 -24.75c16.16,-75.98 42.63,-137.52 79.76,-184.28 37.13,-46.76 90.76,-82.51 160.89,-107.95 69.79,-25.1 151.27,-37.82 243.41,-37.82 91.45,0 166.05,10.66 223.46,32.32 57.07,21.66 99.36,48.47 126.18,81.13 26.82,32.66 45.72,73.92 56.73,123.77 5.84,30.94 8.94,86.64 8.94,166.74l0 240.66c0,168.12 3.78,274.35 11.35,319.39 7.22,45.03 22.35,88.01 44.35,129.27l-189.78 0c-18.22,-38.16 -29.91,-82.86 -35.07,-134.08zm-14.44 -402.24c-66.01,26.82 -165.02,49.51 -297.04,68.07 -74.95,10.66 -127.89,22.69 -158.83,36.1 -30.94,13.41 -54.66,33 -71.51,58.44 -16.85,25.78 -25.44,54.32 -25.44,85.95 0,47.79 18.22,88.01 55,119.98 36.79,31.97 90.42,48.13 160.9,48.13 69.79,0 132.02,-15.13 186.68,-45.72 54.32,-30.25 94.54,-71.85 119.99,-124.45 19.6,-40.91 29.22,-101.07 29.22,-180.49l1.03 -66.01zm1161.69 144.39l177.4 24.75c-19.6,122.05 -69.1,217.28 -149.21,286.38 -80.1,69.1 -178.77,103.48 -295.32,103.48 -146.12,0 -263.69,-47.79 -352.39,-143.36 -89.04,-95.58 -133.39,-232.41 -133.39,-410.49 0,-115.52 19.25,-216.25 57.42,-302.89 38.16,-86.29 96.26,-151.27 174.65,-194.24 78.04,-43.32 162.96,-64.98 255.1,-64.98 115.86,0 211.09,29.22 284.66,88.01 73.92,58.79 121.36,142.33 141.99,250.28l-175.34 26.82c-16.85,-71.85 -46.41,-125.83 -89.39,-162.27 -42.63,-36.1 -94.2,-54.32 -154.71,-54.32 -91.45,0 -165.71,32.66 -223.12,97.98 -57.07,65.67 -85.6,168.81 -85.6,310.45 0,143.71 27.5,247.88 82.51,312.85 55.35,64.98 127.2,97.64 215.56,97.64 71.51,0 130.99,-21.66 178.43,-65.32 47.79,-43.32 78.04,-110.36 90.76,-200.78zm726.1 230l24.75 160.21c-50.88,10.66 -96.61,16.16 -136.49,16.16 -65.67,0 -116.55,-10.31 -152.99,-31.29 -36.1,-20.97 -61.54,-48.13 -76.32,-82.17 -14.78,-34.04 -22,-105.55 -22,-214.53l0 -616.77 -134.08 0 0 -140.27 134.08 0 0 -264.72 181.52 -108.98 0 373.71 181.53 0 0 140.27 -181.53 0 0 627.09c0,51.91 3.1,85.26 9.63,100.04 6.19,14.78 16.5,26.47 30.94,35.41 14.44,8.59 35.07,13.07 61.88,13.07 19.94,0 46.41,-2.41 79.07,-7.22zm1826.93 -356.17l195.96 49.51c-40.91,160.55 -114.48,282.6 -220.72,366.83 -106.23,84.23 -236.19,126.52 -389.86,126.52 -158.83,0 -288.1,-32.31 -387.8,-97.29 -99.7,-64.63 -175.34,-158.49 -227.25,-281.23 -51.91,-123.08 -78.04,-254.75 -78.04,-395.71 0,-153.68 29.22,-287.76 88.01,-402.24 58.79,-114.48 142.33,-201.46 250.63,-260.94 108.3,-59.48 227.59,-89.04 357.55,-89.04 147.83,0 271.94,37.47 372.33,112.76 100.73,75.29 170.87,180.84 210.4,316.98l-191.84 45.38c-34.04,-107.26 -83.89,-185.65 -148.86,-234.47 -64.98,-49.16 -146.8,-73.57 -245.47,-73.57 -113.11,0 -208,27.16 -283.98,81.48 -75.98,54.32 -129.61,127.55 -160.21,219 -30.94,91.79 -46.41,186.34 -46.41,283.63 0,125.48 18.22,235.16 54.66,328.67 36.44,93.86 93.17,163.65 170.18,210.06 77.01,46.41 160.21,69.45 249.94,69.45 109.33,0 201.47,-31.63 277.1,-94.54 75.64,-63.26 126.86,-156.77 153.68,-281.23zm1145.18 171.55l187.71 24.75c-29.22,108.98 -83.89,193.9 -163.65,254.06 -79.76,60.17 -181.52,90.42 -305.63,90.42 -156.08,0 -279.85,-48.13 -371.3,-144.39 -91.45,-95.92 -137.17,-231.03 -137.17,-404.65 0,-179.46 46.07,-319.04 138.55,-418.06 92.48,-99.36 212.47,-148.86 359.95,-148.86 142.68,0 259.22,48.48 349.64,145.77 90.42,97.29 135.8,234.13 135.8,410.49 0,10.66 -0.34,26.82 -1.03,48.13l-797.26 0c6.88,117.23 39.88,207.31 99.7,269.54 59.48,62.23 134.08,93.51 223.12,93.51 66.35,0 123.08,-17.53 169.84,-52.6 47.1,-35.07 84.23,-91.11 111.73,-168.12zm-594.08 -290.85l596.14 0c-7.91,-90.07 -30.94,-157.46 -68.42,-202.5 -57.41,-69.79 -132.36,-104.86 -224.15,-104.86 -83.2,0 -152.99,27.85 -209.71,83.54 -56.38,55.7 -87.67,130.3 -93.86,223.81zm1011.11 637.4l0 -1070.58 162.96 0 0 151.96c78.39,-116.55 191.84,-174.65 340.02,-174.65 64.63,0 123.77,11.69 177.74,34.72 53.98,23.03 94.54,53.63 121.36,91.1 26.82,37.48 45.72,82.17 56.38,133.74 6.53,33.69 9.97,92.48 9.97,176.37l0 657.34 -181.52 0 0 -650.46c0,-73.92 -6.88,-129.27 -20.97,-165.71 -14.1,-36.44 -39.19,-65.66 -74.95,-87.67 -35.75,-21.66 -78.04,-32.66 -126.17,-32.66 -77.01,0 -143.36,24.41 -199.4,73.57 -56.04,48.82 -83.89,141.99 -83.89,278.82l0 584.11 -181.53 0zm1541.24 -161.93l24.75 160.21c-50.88,10.66 -96.61,16.16 -136.49,16.16 -65.67,0 -116.55,-10.31 -152.99,-31.29 -36.1,-20.97 -61.54,-48.13 -76.32,-82.17 -14.78,-34.04 -22,-105.55 -22,-214.53l0 -616.77 -134.08 0 0 -140.27 134.08 0 0 -264.72 181.52 -108.98 0 373.71 181.53 0 0 140.27 -181.53 0 0 627.09c0,51.91 3.1,85.26 9.63,100.04 6.19,14.78 16.5,26.47 30.94,35.41 14.44,8.59 35.07,13.07 61.88,13.07 19.94,0 46.41,-2.41 79.07,-7.22zm909.34 -184.62l187.71 24.75c-29.22,108.98 -83.89,193.9 -163.65,254.06 -79.76,60.17 -181.52,90.42 -305.63,90.42 -156.08,0 -279.85,-48.13 -371.3,-144.39 -91.45,-95.92 -137.17,-231.03 -137.17,-404.65 0,-179.46 46.07,-319.04 138.55,-418.06 92.48,-99.36 212.47,-148.86 359.95,-148.86 142.68,0 259.22,48.48 349.64,145.77 90.42,97.29 135.8,234.13 135.8,410.49 0,10.66 -0.34,26.82 -1.03,48.13l-797.26 0c6.88,117.23 39.88,207.31 99.7,269.54 59.48,62.23 134.08,93.51 223.12,93.51 66.35,0 123.08,-17.53 169.84,-52.6 47.1,-35.07 84.23,-91.11 111.73,-168.12zm-594.08 -290.85l596.14 0c-7.91,-90.07 -30.94,-157.46 -68.42,-202.5 -57.41,-69.79 -132.36,-104.86 -224.15,-104.86 -83.2,0 -152.99,27.85 -209.71,83.54 -56.38,55.7 -87.67,130.3 -93.86,223.81zm1009.04 637.4l0 -1070.58 162.96 0 0 163.99c41.6,-75.98 80.11,-126.17 115.52,-150.24 35.41,-24.41 74.26,-36.44 116.55,-36.44 61.19,0 123.42,19.25 186.68,57.42l-64.63 167.43c-44.01,-24.75 -88.01,-37.13 -132.02,-37.13 -39.54,0 -74.95,12.03 -106.23,35.75 -31.29,23.72 -53.63,56.73 -67.04,99.01 -20.28,64.29 -30.25,134.77 -30.25,211.44l0 559.36 -181.52 0zm1280.64 0l0 -1476.95 292.91 0 349.3 1045.48c32.32,97.29 55.7,170.18 70.48,218.66 16.85,-53.63 43.32,-132.71 79.07,-236.88l355.48 -1027.26 261.63 0 0 1476.95 -187.71 0 0 -1235.6 -431.12 1235.6 -176.03 0 -426.31 -1258.29 0 1258.29 -187.71 0zm2399.01 -134.08c-67.38,57.42 -132.36,97.64 -194.59,121.36 -62.23,23.72 -128.92,35.41 -200.43,35.41 -117.58,0 -208,-28.53 -271.25,-85.95 -63.26,-57.07 -94.89,-130.3 -94.89,-219.34 0,-52.26 12.03,-100.04 35.76,-143.36 24.07,-43.32 55.35,-77.7 93.86,-103.83 38.85,-26.13 82.17,-46.07 130.64,-59.48 35.76,-9.28 89.73,-18.22 161.59,-27.16 146.46,-17.19 254.75,-38.16 323.86,-62.23 0.69,-24.75 1.03,-40.57 1.03,-47.1 0,-73.57 -17.19,-125.49 -51.57,-155.74 -46.41,-40.91 -115.52,-61.19 -206.96,-61.19 -85.61,0 -148.87,15.13 -189.43,45.04 -40.91,29.91 -70.82,82.85 -90.42,159.18l-177.4 -24.75c16.16,-75.98 42.63,-137.52 79.76,-184.28 37.13,-46.76 90.76,-82.51 160.89,-107.95 69.79,-25.1 151.27,-37.82 243.41,-37.82 91.45,0 166.05,10.66 223.46,32.32 57.07,21.66 99.36,48.47 126.18,81.13 26.82,32.66 45.72,73.92 56.73,123.77 5.84,30.94 8.94,86.64 8.94,166.74l0 240.66c0,168.12 3.78,274.35 11.35,319.39 7.22,45.03 22.35,88.01 44.35,129.27l-189.78 0c-18.22,-38.16 -29.91,-82.86 -35.07,-134.08zm-14.44 -402.24c-66.01,26.82 -165.02,49.51 -297.04,68.07 -74.95,10.66 -127.89,22.69 -158.83,36.1 -30.94,13.41 -54.66,33 -71.51,58.44 -16.85,25.78 -25.44,54.32 -25.44,85.95 0,47.79 18.22,88.01 55,119.98 36.79,31.97 90.42,48.13 160.9,48.13 69.79,0 132.02,-15.13 186.68,-45.72 54.32,-30.25 94.54,-71.85 119.99,-124.45 19.6,-40.91 29.22,-101.07 29.22,-180.49l1.03 -66.01zm462.41 536.32l0 -1070.58 162.96 0 0 151.96c78.39,-116.55 191.84,-174.65 340.02,-174.65 64.63,0 123.77,11.69 177.74,34.72 53.98,23.03 94.54,53.63 121.36,91.1 26.82,37.48 45.72,82.17 56.38,133.74 6.53,33.69 9.97,92.48 9.97,176.37l0 657.34 -181.52 0 0 -650.46c0,-73.92 -6.88,-129.27 -20.97,-165.71 -14.1,-36.44 -39.19,-65.66 -74.95,-87.67 -35.75,-21.66 -78.04,-32.66 -126.17,-32.66 -77.01,0 -143.36,24.41 -199.4,73.57 -56.04,48.82 -83.89,141.99 -83.89,278.82l0 584.11 -181.53 0zm1846.53 -134.08c-67.38,57.42 -132.36,97.64 -194.59,121.36 -62.23,23.72 -128.92,35.41 -200.43,35.41 -117.58,0 -208,-28.53 -271.25,-85.95 -63.26,-57.07 -94.89,-130.3 -94.89,-219.34 0,-52.26 12.03,-100.04 35.76,-143.36 24.07,-43.32 55.35,-77.7 93.86,-103.83 38.85,-26.13 82.17,-46.07 130.64,-59.48 35.76,-9.28 89.73,-18.22 161.59,-27.16 146.46,-17.19 254.75,-38.16 323.86,-62.23 0.69,-24.75 1.03,-40.57 1.03,-47.1 0,-73.57 -17.19,-125.49 -51.57,-155.74 -46.41,-40.91 -115.52,-61.19 -206.96,-61.19 -85.61,0 -148.87,15.13 -189.43,45.04 -40.91,29.91 -70.82,82.85 -90.42,159.18l-177.4 -24.75c16.16,-75.98 42.63,-137.52 79.76,-184.28 37.13,-46.76 90.76,-82.51 160.89,-107.95 69.79,-25.1 151.27,-37.82 243.41,-37.82 91.45,0 166.05,10.66 223.46,32.32 57.07,21.66 99.36,48.47 126.18,81.13 26.82,32.66 45.72,73.92 56.73,123.77 5.84,30.94 8.94,86.64 8.94,166.74l0 240.66c0,168.12 3.78,274.35 11.35,319.39 7.22,45.03 22.35,88.01 44.35,129.27l-189.78 0c-18.22,-38.16 -29.91,-82.86 -35.07,-134.08zm-14.44 -402.24c-66.01,26.82 -165.02,49.51 -297.04,68.07 -74.95,10.66 -127.89,22.69 -158.83,36.1 -30.94,13.41 -54.66,33 -71.51,58.44 -16.85,25.78 -25.44,54.32 -25.44,85.95 0,47.79 18.22,88.01 55,119.98 36.79,31.97 90.42,48.13 160.9,48.13 69.79,0 132.02,-15.13 186.68,-45.72 54.32,-30.25 94.54,-71.85 119.99,-124.45 19.6,-40.91 29.22,-101.07 29.22,-180.49l1.03 -66.01zm429.06 625.02l175.34 24.75c7.22,54.32 27.85,93.86 61.54,118.95 45.04,33.35 106.58,50.2 184.62,50.2 83.89,0 148.86,-16.85 194.59,-50.2 45.72,-33.35 76.67,-80.45 92.83,-140.61 9.28,-36.79 13.75,-114.14 13.06,-232.06 -79.42,93.51 -178.09,140.27 -296.35,140.27 -147.14,0 -261.28,-52.94 -341.73,-159.18 -80.79,-105.89 -121.02,-233.09 -121.02,-381.27 0,-102.11 18.57,-196.31 55.35,-282.6 36.79,-86.29 90.42,-152.65 160.55,-199.74 70.14,-47.1 152.65,-70.48 247.53,-70.48 126.17,0 230.34,51.57 312.17,154.71l0 -132.02 167.08 0 0 924.47c0,166.74 -16.85,284.66 -50.88,354.11 -33.69,69.45 -87.67,124.45 -160.9,164.68 -73.57,40.23 -163.99,60.51 -271.26,60.51 -127.55,0 -230.34,-28.53 -308.73,-85.95 -78.73,-57.07 -116.55,-143.36 -113.8,-258.53zm148.52 -642.21c0,139.93 27.85,242.03 83.54,306.32 56.04,64.29 125.83,96.61 209.71,96.61 83.54,0 153.33,-31.97 210.06,-95.92 56.38,-63.95 84.57,-164.33 84.57,-301.17 0,-130.64 -29.22,-229.31 -87.32,-295.66 -58.1,-66.35 -128.23,-99.36 -210.06,-99.36 -80.79,0 -149.21,32.66 -205.94,97.98 -56.38,65.32 -84.57,162.27 -84.57,291.2zm1762.3 206.96l187.71 24.75c-29.22,108.98 -83.89,193.9 -163.65,254.06 -79.76,60.17 -181.52,90.42 -305.63,90.42 -156.08,0 -279.85,-48.13 -371.3,-144.39 -91.45,-95.92 -137.17,-231.03 -137.17,-404.65 0,-179.46 46.07,-319.04 138.55,-418.06 92.48,-99.36 212.47,-148.86 359.95,-148.86 142.68,0 259.22,48.48 349.64,145.77 90.42,97.29 135.8,234.13 135.8,410.49 0,10.66 -0.34,26.82 -1.03,48.13l-797.26 0c6.88,117.23 39.88,207.31 99.7,269.54 59.48,62.23 134.08,93.51 223.12,93.51 66.35,0 123.08,-17.53 169.84,-52.6 47.1,-35.07 84.23,-91.11 111.73,-168.12zm-594.08 -290.85l596.14 0c-7.91,-90.07 -30.94,-157.46 -68.42,-202.5 -57.41,-69.79 -132.36,-104.86 -224.15,-104.86 -83.2,0 -152.99,27.85 -209.71,83.54 -56.38,55.7 -87.67,130.3 -93.86,223.81zm1009.04 637.4l0 -1070.58 162.96 0 0 163.99c41.6,-75.98 80.11,-126.17 115.52,-150.24 35.41,-24.41 74.26,-36.44 116.55,-36.44 61.19,0 123.42,19.25 186.68,57.42l-64.63 167.43c-44.01,-24.75 -88.01,-37.13 -132.02,-37.13 -39.54,0 -74.95,12.03 -106.23,35.75 -31.29,23.72 -53.63,56.73 -67.04,99.01 -20.28,64.29 -30.25,134.77 -30.25,211.44l0 559.36 -181.52 0z"/>
  <rect class="fil8" x="42535.86" y="1778.86" width="363.53" height="7858.54" rx="181.77" ry="187.11"/>
  <g id="_2511194796096">
   <path class="fil9" d="M46964.15 8759.21c-184.85,0 -354.29,-25.55 -508.33,-76.64 -154.04,-51.09 -286.3,-122.84 -396.78,-215.24 -110.48,-92.4 -196.53,-203.29 -258.15,-332.65 -61.62,-129.36 -92.42,-273.4 -92.42,-432.12 0,-158.71 30.8,-302.75 92.42,-432.12 61.62,-129.36 147.66,-240.25 258.15,-332.65 110.49,-92.4 242.74,-163.61 396.78,-213.61 154.04,-50 323.48,-75.01 508.33,-75.01 104.11,0 205.56,8.7 304.36,26.09 98.8,17.39 192.29,42.4 280.46,75.01 88.17,32.61 168.38,72.84 240.62,120.67 72.24,47.83 132.79,102.19 181.66,163.06l0 -710.95 162.54 0 0 2328.53 -162.54 0 0 -260.9c-116.86,117.41 -260.27,208.18 -430.25,272.32 -169.97,64.14 -362.26,96.21 -576.85,96.21zm35.06 -166.32c220.97,0 414.31,-34.24 580.04,-102.73 165.72,-68.48 296.39,-169.04 392,-301.67l0 -965.33c-95.61,-132.62 -226.81,-233.72 -393.6,-303.3 -166.79,-69.57 -359.6,-104.36 -578.44,-104.36 -169.97,0 -324.01,21.2 -462.12,63.59 -138.1,42.4 -256.55,102.73 -355.35,181 -98.8,78.27 -175.29,171.76 -229.47,280.47 -54.18,108.71 -81.27,229.37 -81.27,362 0,134.8 27.09,256.55 81.27,365.26 54.18,108.71 130.67,202.2 229.47,280.47 98.8,78.27 217.25,138.6 355.35,181 138.11,42.4 292.15,63.6 462.12,63.6zm3107.34 101.1c-193.35,0 -369.16,-25.55 -527.45,-76.64 -158.29,-51.09 -294.27,-122.84 -407.94,-215.24 -113.67,-92.4 -201.31,-203.29 -262.93,-332.65 -61.61,-129.36 -92.42,-273.4 -92.42,-432.12 0,-154.37 31.34,-296.23 94.02,-425.59 62.68,-129.36 150.32,-240.24 262.93,-332.65 112.61,-92.4 248.59,-164.69 407.94,-216.87 159.35,-52.18 334.64,-78.27 525.86,-78.27 193.35,0 369.16,26.09 527.45,78.27 158.29,52.18 293.74,124.47 406.35,216.87 112.61,92.4 200.25,203.29 262.93,332.65 62.68,129.36 94.02,271.23 94.02,425.59l0 75.01 -2406.2 0c6.37,121.75 38.77,232.64 97.2,332.65 58.43,100.01 136.51,185.89 234.24,257.64 97.73,71.75 213,127.19 345.79,166.33 132.79,39.13 278.86,58.7 438.21,58.7 227.34,0 427.06,-34.24 599.16,-102.73 172.1,-68.48 312.33,-174.48 420.69,-317.97l146.6 81.53c-129.61,171.76 -292.68,298.95 -489.21,381.57 -196.53,82.62 -422.28,123.93 -677.24,123.93zm1115.45 -1128.39c-8.5,-121.75 -41.43,-232.64 -98.8,-332.65 -57.36,-100.01 -134.92,-185.89 -232.65,-257.64 -97.73,-71.75 -213,-127.19 -345.79,-166.32 -132.79,-39.13 -278.86,-58.7 -438.21,-58.7 -159.35,0 -305.42,19.57 -438.21,58.7 -132.8,39.13 -247.52,94.58 -344.2,166.32 -96.67,71.75 -174.22,157.63 -232.65,257.64 -58.43,100.01 -91.89,210.89 -100.39,332.65l2230.91 0zm1156.89 -1209.92l0 1871.96c0,86.96 21.25,163.06 63.74,228.29 42.49,65.23 111.55,106.54 207.16,123.93l-12.75 153.28c-140.23,-17.39 -245.4,-70.66 -315.52,-159.8 -70.11,-89.14 -105.17,-202.2 -105.17,-339.17l0 -1878.48 162.54 0zm3872.23 2335.06c-210.34,0 -401.56,-30.44 -573.66,-91.32 -172.1,-60.88 -319.76,-146.76 -442.99,-257.64 -123.23,-110.88 -218.84,-244.59 -286.83,-401.13 -67.99,-156.54 -101.98,-329.39 -101.98,-518.54 0,-191.33 33.99,-365.26 101.98,-521.8 67.99,-156.54 163.6,-290.8 286.83,-402.77 123.23,-111.97 270.9,-198.39 442.99,-259.27 172.1,-60.88 363.32,-91.32 573.66,-91.32 265.58,0 503.02,46.74 712.3,140.23 209.28,93.49 380.85,239.16 514.7,437.01l-133.85 94.58c-118.98,-171.76 -271.43,-298.95 -457.34,-381.57 -185.91,-82.62 -397.84,-123.93 -635.81,-123.93 -184.85,0 -353.76,26.63 -506.74,79.9 -152.98,53.27 -284.18,128.82 -393.6,226.66 -109.42,97.84 -193.88,214.7 -253.37,350.59 -59.49,135.89 -89.23,286.45 -89.23,451.69 0,165.24 29.74,315.25 89.23,450.05 59.49,134.8 143.95,250.57 253.37,347.33 109.42,96.75 240.62,171.76 393.6,225.03 152.98,53.27 321.89,79.9 506.74,79.9 237.97,0 449.9,-42.4 635.81,-127.19 185.91,-84.79 338.35,-213.07 457.34,-384.83l133.85 91.32c-133.85,197.85 -305.42,345.15 -514.7,441.9 -209.28,96.75 -446.72,145.13 -712.3,145.13zm2855.57 3.26c-193.34,0 -369.16,-25.55 -527.45,-76.64 -158.29,-51.09 -294.27,-122.84 -407.94,-215.24 -113.67,-92.4 -201.31,-203.29 -262.93,-332.65 -61.62,-129.36 -92.42,-273.4 -92.42,-432.12 0,-158.71 30.81,-302.75 92.42,-432.12 61.61,-129.36 149.26,-240.25 262.93,-332.65 113.67,-92.4 249.65,-163.61 407.94,-213.61 158.29,-50 334.11,-75.01 527.45,-75.01 193.35,0 369.16,25 527.45,75.01 158.29,50.01 293.74,121.21 406.34,213.61 112.61,92.4 200.25,203.29 262.93,332.65 62.68,129.36 94.02,273.4 94.02,432.12 0,158.71 -31.34,302.75 -94.02,432.12 -62.67,129.36 -150.32,240.25 -262.93,332.65 -112.61,92.4 -248.05,164.15 -406.34,215.24 -158.29,51.09 -334.1,76.64 -527.45,76.64zm0 -1943.71c-169.98,0 -324.01,21.2 -462.12,63.59 -138.11,42.4 -256.56,102.73 -355.35,181 -98.8,78.27 -175.29,171.76 -229.46,280.47 -54.18,108.71 -81.27,229.37 -81.27,362 0,134.8 27.09,256.55 81.27,365.26 54.18,108.71 130.67,202.2 229.46,280.47 98.8,78.27 217.25,138.6 355.35,181 138.1,42.4 292.14,63.6 462.12,63.6 167.85,0 321.36,-21.2 460.52,-63.6 139.16,-42.39 258.15,-102.73 356.95,-181 98.79,-78.27 175.29,-171.76 229.46,-280.47 54.18,-108.71 81.27,-230.46 81.27,-365.26 0,-132.62 -27.09,-253.29 -81.27,-362 -54.18,-108.71 -130.67,-202.2 -229.46,-280.47 -98.8,-78.27 -217.78,-138.6 -356.95,-181 -139.17,-42.39 -292.68,-63.59 -460.52,-63.59zm4286.54 1868.7l-162.54 0 0 -989.79c0,-274.49 -92.96,-484.29 -278.86,-628.88 -185.91,-145.13 -461.58,-217.42 -827.03,-217.42 -220.97,0 -418.56,34.24 -592.79,102.73 -174.23,69.03 -309.14,169.58 -404.75,302.21l0 1431.15 -162.54 0 0 -1894.79 162.54 0 0 264.16c110.48,-123.93 253.37,-216.87 428.65,-278.84 175.29,-61.96 364.91,-92.94 568.88,-92.94 418.56,0 734.61,86.42 948.14,259.27 213.53,172.84 320.3,424.51 320.3,754.98l0 988.16zm2049.25 -1741.51l-959.29 0 0 1147.96c0,147.84 41.96,263.07 125.89,345.69 83.92,82.62 200.25,123.93 348.98,123.93 46.74,0 99.86,-5.98 159.35,-17.94 59.49,-11.96 127.48,-32.07 203.97,-60.33l41.43 163.06c-80.74,30.44 -154.57,51.64 -221.5,63.59 -66.93,11.96 -128.01,17.94 -183.25,17.94 -199.72,0 -355.88,-56.53 -468.49,-169.58 -112.61,-113.06 -168.91,-268.51 -168.91,-466.36l0 -1147.96 -376.07 0 0 -166.32 376.07 0 0 -446.79 162.54 0 0 446.79 959.29 0 0 166.32zm1920.18 1849.13c-163.07,0 -312.86,-16.85 -448.84,-50.55 -135.45,-33.7 -252.84,-80.44 -351.63,-140.23 -98.27,-59.79 -174.76,-131.54 -228.93,-215.24 -54.18,-83.71 -81.27,-176.65 -81.27,-278.84 0,-202.2 92.96,-359.28 278.86,-471.25 185.91,-111.97 462.65,-167.95 830.22,-167.95 148.73,0 287.89,5.44 417.5,16.31 129.6,10.87 245.4,23.92 347.38,39.13 101.98,15.22 186.44,30.44 253.37,45.66 66.93,15.22 112.08,27.18 135.45,35.87 0,-236.98 -93.49,-422.33 -280.46,-556.04 -186.97,-133.71 -469.56,-200.57 -847.75,-200.57 -186.97,0 -357.48,17.39 -511.52,52.18 -154.04,34.79 -294.8,94.58 -422.28,179.37l-76.49 -136.97c127.48,-89.14 276.21,-154.91 446.18,-197.31 169.97,-42.4 358.01,-63.59 564.1,-63.59 242.21,0 445.65,25.55 610.31,76.64 164.66,51.09 297.98,118.49 399.44,202.2 101.98,83.71 174.22,180.46 216.72,290.25 43.02,109.79 64.27,223.39 64.27,340.8l0 1092.52 -162.54 0 -3.19 -260.9c-126.95,117.41 -291.08,208.18 -491.33,272.32 -200.78,64.14 -419.62,96.21 -657.59,96.21zm1.59 -166.32c129.61,0 253.37,-10.87 371.29,-32.61 117.92,-21.74 227.34,-52.18 328.26,-91.32 100.92,-39.13 189.63,-86.43 266.12,-141.87 76.49,-55.44 138.1,-117.95 184.84,-187.52l0 -433.74c-78.61,-17.39 -215.12,-40.22 -409.53,-68.49 -194.41,-28.26 -441.4,-42.4 -740.98,-42.4 -303.83,0 -538.07,41.85 -702.74,125.56 -164.66,83.71 -246.99,201.65 -246.99,353.84 0,76.1 23.37,146.21 70.11,210.35 46.74,64.14 112.08,119.03 196,164.69 83.92,45.66 183.78,80.99 299.58,105.99 115.79,25 243.81,37.51 384.04,37.51zm3308.12 101.1c-193.34,0 -369.16,-25.55 -527.45,-76.64 -158.29,-51.09 -294.27,-122.84 -407.94,-215.24 -113.67,-92.4 -201.31,-203.29 -262.93,-332.65 -61.62,-129.36 -92.42,-273.4 -92.42,-432.12 0,-158.71 30.81,-302.75 92.42,-432.12 61.61,-129.36 149.26,-240.25 262.93,-332.65 113.67,-92.4 249.65,-163.61 407.94,-213.61 158.29,-50 334.11,-75.01 527.45,-75.01 252.83,0 476.46,42.39 670.87,127.19 194.41,84.79 352.17,215.24 473.27,391.35l-133.86 94.58c-101.99,-150.02 -239.03,-261.99 -411.12,-335.91 -172.1,-73.92 -371.82,-110.88 -599.16,-110.88 -169.98,0 -324.01,21.2 -462.12,63.59 -138.11,42.4 -256.56,102.73 -355.35,181 -98.79,78.27 -175.29,171.76 -229.46,280.47 -54.18,108.71 -81.27,229.37 -81.27,362 0,134.8 27.09,256.55 81.27,365.26 54.18,108.71 130.67,202.2 229.46,280.47 98.8,78.27 217.25,138.6 355.35,181 138.1,42.4 292.14,63.6 462.12,63.6 225.22,0 425.47,-36.96 600.75,-110.88 175.29,-73.92 312.86,-182.63 412.72,-326.13l133.86 94.58c-114.73,167.41 -271.96,294.06 -471.68,379.94 -199.72,85.88 -424.94,128.82 -675.65,128.82zm3123.28 -1816.52l-959.29 0 0 1147.96c0,147.84 41.96,263.07 125.89,345.69 83.92,82.62 200.25,123.93 348.98,123.93 46.74,0 99.86,-5.98 159.35,-17.94 59.49,-11.96 127.48,-32.07 203.97,-60.33l41.43 163.06c-80.74,30.44 -154.57,51.64 -221.5,63.59 -66.93,11.96 -128.01,17.94 -183.25,17.94 -199.72,0 -355.88,-56.53 -468.49,-169.58 -112.61,-113.06 -168.91,-268.51 -168.91,-466.36l0 -1147.96 -376.07 0 0 -166.32 376.07 0 0 -446.79 162.54 0 0 446.79 959.29 0 0 166.32zm3732 1878.49c-210.34,0 -401.56,-30.44 -573.66,-91.32 -172.1,-60.88 -319.76,-146.76 -442.99,-257.64 -123.23,-110.88 -218.84,-244.59 -286.83,-401.13 -67.99,-156.54 -101.98,-329.39 -101.98,-518.54 0,-191.33 33.99,-365.26 101.98,-521.8 67.99,-156.54 163.6,-290.8 286.83,-402.77 123.23,-111.97 270.9,-198.39 442.99,-259.27 172.1,-60.88 363.32,-91.32 573.66,-91.32 265.58,0 503.02,46.74 712.3,140.23 209.28,93.49 380.85,239.16 514.7,437.01l-133.85 94.58c-118.98,-171.76 -271.43,-298.95 -457.34,-381.57 -185.91,-82.62 -397.84,-123.93 -635.81,-123.93 -184.85,0 -353.76,26.63 -506.74,79.9 -152.98,53.27 -284.18,128.82 -393.6,226.66 -109.42,97.84 -193.88,214.7 -253.37,350.59 -59.49,135.89 -89.23,286.45 -89.23,451.69 0,165.24 29.74,315.25 89.23,450.05 59.49,134.8 143.95,250.57 253.37,347.33 109.42,96.75 240.62,171.76 393.6,225.03 152.98,53.27 321.89,79.9 506.74,79.9 237.97,0 449.9,-42.4 635.81,-127.19 185.91,-84.79 338.35,-213.07 457.34,-384.83l133.85 91.32c-133.85,197.85 -305.42,345.15 -514.7,441.9 -209.28,96.75 -446.72,145.13 -712.3,145.13zm3333.62 35.87c-193.35,0 -369.16,-25.55 -527.45,-76.64 -158.29,-51.09 -294.27,-122.84 -407.94,-215.24 -113.67,-92.4 -201.31,-203.29 -262.93,-332.65 -61.62,-129.36 -92.42,-273.4 -92.42,-432.12 0,-154.37 31.34,-296.23 94.02,-425.59 62.68,-129.36 150.32,-240.24 262.93,-332.65 112.61,-92.4 248.59,-164.69 407.94,-216.87 159.35,-52.18 334.64,-78.27 525.86,-78.27 193.35,0 369.16,26.09 527.45,78.27 158.29,52.18 293.74,124.47 406.35,216.87 112.61,92.4 200.25,203.29 262.93,332.65 62.68,129.36 94.02,271.23 94.02,425.59l0 75.01 -2406.2 0c6.37,121.75 38.77,232.64 97.2,332.65 58.43,100.01 136.51,185.89 234.24,257.64 97.73,71.75 213,127.19 345.79,166.33 132.79,39.13 278.87,58.7 438.22,58.7 227.34,0 427.06,-34.24 599.16,-102.73 172.1,-68.48 312.33,-174.48 420.69,-317.97l146.6 81.53c-129.61,171.76 -292.68,298.95 -489.21,381.57 -196.53,82.62 -422.28,123.93 -677.24,123.93zm1115.45 -1128.39c-8.5,-121.75 -41.43,-232.64 -98.8,-332.65 -57.37,-100.01 -134.92,-185.89 -232.65,-257.64 -97.73,-71.75 -213,-127.19 -345.79,-166.32 -132.79,-39.13 -278.86,-58.7 -438.21,-58.7 -159.35,0 -305.42,19.57 -438.22,58.7 -132.79,39.13 -247.52,94.58 -344.2,166.32 -96.67,71.75 -174.22,157.63 -232.65,257.64 -58.43,100.01 -91.89,210.89 -100.39,332.65l2230.91 0zm3394.17 922.93l-162.54 0 0 -989.79c0,-274.49 -92.96,-484.29 -278.87,-628.88 -185.91,-145.13 -461.58,-217.42 -827.03,-217.42 -220.96,0 -418.56,34.24 -592.78,102.73 -174.23,69.03 -309.14,169.58 -404.75,302.21l0 1431.15 -162.54 0 0 -1894.79 162.54 0 0 264.16c110.48,-123.93 253.37,-216.87 428.65,-278.84 175.29,-61.96 364.91,-92.94 568.88,-92.94 418.56,0 734.61,86.42 948.14,259.27 213.53,172.84 320.3,424.51 320.3,754.98l0 988.16zm2049.25 -1611.06l-959.29 0 0 1147.96c0,147.84 41.96,263.07 125.89,345.69 83.92,82.62 200.25,123.93 348.98,123.93 46.74,0 99.86,-5.98 159.35,-17.94 59.49,-11.96 127.48,-32.07 203.97,-60.33l41.43 163.06c-80.74,30.44 -154.57,51.64 -221.5,63.59 -66.93,11.96 -128.01,17.94 -183.25,17.94 -199.72,0 -355.88,-56.53 -468.49,-169.58 -112.61,-113.06 -168.91,-268.51 -168.91,-466.36l0 -1147.96 -376.07 0 0 -166.32 376.07 0 0 -446.79 162.54 0 0 446.79 959.29 0 0 166.32zm1797.48 1783.91c-193.35,0 -369.17,-25.55 -527.45,-76.64 -158.29,-51.09 -294.27,-122.84 -407.94,-215.24 -113.67,-92.4 -201.31,-203.29 -262.93,-332.65 -61.62,-129.36 -92.42,-273.4 -92.42,-432.12 0,-154.37 31.34,-296.23 94.02,-425.59 62.68,-129.36 150.32,-240.24 262.93,-332.65 112.61,-92.4 248.59,-164.69 407.94,-216.87 159.35,-52.18 334.64,-78.27 525.86,-78.27 193.34,0 369.16,26.09 527.45,78.27 158.29,52.18 293.74,124.47 406.34,216.87 112.61,92.4 200.25,203.29 262.93,332.65 62.67,129.36 94.02,271.23 94.02,425.59l0 75.01 -2406.2 0c6.38,121.75 38.77,232.64 97.2,332.65 58.43,100.01 136.51,185.89 234.24,257.64 97.74,71.75 213,127.19 345.79,166.33 132.79,39.13 278.86,58.7 438.22,58.7 227.34,0 427.06,-34.24 599.16,-102.73 172.1,-68.48 312.33,-174.48 420.69,-317.97l146.6 81.53c-129.6,171.76 -292.68,298.95 -489.21,381.57 -196.53,82.62 -422.28,123.93 -677.24,123.93zm1115.45 -1128.39c-8.5,-121.75 -41.43,-232.64 -98.8,-332.65 -57.37,-100.01 -134.92,-185.89 -232.65,-257.64 -97.74,-71.75 -213,-127.19 -345.79,-166.32 -132.79,-39.13 -278.86,-58.7 -438.21,-58.7 -159.35,0 -305.43,19.57 -438.22,58.7 -132.79,39.13 -247.52,94.58 -344.2,166.32 -96.67,71.75 -174.22,157.63 -232.65,257.64 -58.43,100.01 -91.89,210.89 -100.39,332.65l2230.91 0zm806.31 955.55l0 -1894.79 162.54 0 0 202.2c93.49,-176.11 252.84,-268.51 478.05,-277.21 70.12,-2.17 136.51,5.43 199.19,22.83 62.68,17.39 130.14,41.31 202.38,71.75l-44.62 159.8c-72.24,-30.44 -135.45,-51.64 -189.63,-63.59 -54.18,-11.96 -111.01,-17.94 -170.5,-17.94 -155.1,0 -273.02,44.57 -353.76,133.71 -80.74,89.14 -121.1,221.77 -121.1,397.87l0 1265.37 -162.54 0z"/>
   <path class="fil9" d="M48458.39 5103l-2530.49 0 0 -2328.53 162.54 0 0 2162.21 2367.96 0 0 166.32zm1706.64 140.23c-163.07,0 -312.86,-16.85 -448.84,-50.55 -135.45,-33.7 -252.84,-80.44 -351.63,-140.23 -98.27,-59.79 -174.76,-131.54 -228.93,-215.24 -54.18,-83.71 -81.27,-176.65 -81.27,-278.84 0,-202.2 92.96,-359.28 278.87,-471.25 185.91,-111.97 462.65,-167.95 830.21,-167.95 148.73,0 287.9,5.44 417.5,16.31 129.61,10.87 245.4,23.92 347.38,39.13 101.98,15.22 186.44,30.44 253.37,45.66 66.93,15.22 112.08,27.18 135.45,35.87 0,-236.98 -93.49,-422.33 -280.46,-556.04 -186.97,-133.71 -469.56,-200.57 -847.75,-200.57 -186.97,0 -357.48,17.39 -511.51,52.18 -154.04,34.79 -294.8,94.58 -422.28,179.37l-76.49 -136.97c127.48,-89.14 276.21,-154.91 446.18,-197.31 169.97,-42.4 358.01,-63.59 564.1,-63.59 242.21,0 445.65,25.55 610.31,76.64 164.66,51.09 297.99,118.49 399.44,202.2 101.98,83.71 174.22,180.46 216.72,290.25 43.02,109.79 64.27,223.39 64.27,340.8l0 1092.52 -162.54 0 -3.19 -260.9c-126.95,117.41 -291.08,208.18 -491.33,272.32 -200.78,64.14 -419.62,96.21 -657.59,96.21zm1.59 -166.32c129.6,0 253.37,-10.87 371.29,-32.61 117.92,-21.74 227.34,-52.18 328.26,-91.32 100.92,-39.13 189.63,-86.43 266.12,-141.87 76.49,-55.44 138.1,-117.95 184.84,-187.52l0 -433.74c-78.61,-17.39 -215.13,-40.22 -409.53,-68.49 -194.41,-28.26 -441.4,-42.4 -740.98,-42.4 -303.83,0 -538.07,41.85 -702.74,125.56 -164.66,83.71 -246.99,201.65 -246.99,353.84 0,76.1 23.37,146.21 70.11,210.35 46.74,64.14 112.08,119.03 196,164.69 83.92,45.66 183.78,80.99 299.58,105.99 115.79,25 243.81,37.51 384.04,37.51zm5927.85 -1307.77l-1889.9 0 0 1134.92 2367.95 0 0 166.32 -2530.49 0 0 -2328.53 2352.02 0 0 166.32 -2189.48 0 0 694.65 1889.9 0 0 166.32zm2183.1 1333.85l-1335.36 -1894.79 200.78 0 1188.76 1692.59 1195.13 -1692.59 203.97 0 -1338.55 1894.79 -114.73 0zm2932.06 107.62c-193.35,0 -369.16,-25.55 -527.45,-76.64 -158.29,-51.09 -294.27,-122.84 -407.94,-215.24 -113.67,-92.4 -201.31,-203.29 -262.93,-332.65 -61.61,-129.36 -92.42,-273.4 -92.42,-432.12 0,-158.71 30.81,-302.75 92.42,-432.12 61.62,-129.36 149.26,-240.25 262.93,-332.65 113.67,-92.4 249.65,-163.61 407.94,-213.61 158.29,-50 334.1,-75.01 527.45,-75.01 193.35,0 369.16,25 527.45,75.01 158.29,50.01 293.74,121.21 406.35,213.61 112.61,92.4 200.25,203.29 262.93,332.65 62.68,129.36 94.02,273.4 94.02,432.12 0,158.71 -31.34,302.75 -94.02,432.12 -62.68,129.36 -150.32,240.25 -262.93,332.65 -112.61,92.4 -248.06,164.15 -406.35,215.24 -158.29,51.09 -334.1,76.64 -527.45,76.64zm0 -1943.71c-169.98,0 -324.01,21.2 -462.12,63.59 -138.11,42.4 -256.56,102.73 -355.35,181 -98.8,78.27 -175.29,171.76 -229.47,280.47 -54.18,108.71 -81.27,229.37 -81.27,362 0,134.8 27.09,256.55 81.27,365.26 54.18,108.71 130.67,202.2 229.47,280.47 98.8,78.27 217.25,138.6 355.35,181 138.1,42.4 292.14,63.6 462.12,63.6 167.85,0 321.36,-21.2 460.52,-63.6 139.16,-42.39 258.15,-102.73 356.94,-181 98.8,-78.27 175.29,-171.76 229.47,-280.47 54.18,-108.71 81.27,-230.46 81.27,-365.26 0,-132.62 -27.09,-253.29 -81.27,-362 -54.18,-108.71 -130.67,-202.2 -229.47,-280.47 -98.8,-78.27 -217.78,-138.6 -356.94,-181 -139.17,-42.39 -292.68,-63.59 -460.52,-63.59zm2336.08 -492.45l0 1871.96c0,86.96 21.25,163.06 63.74,228.29 42.49,65.23 111.55,106.54 207.16,123.93l-12.75 153.28c-140.23,-17.39 -245.4,-70.66 -315.52,-159.8 -70.11,-89.14 -105.17,-202.2 -105.17,-339.17l0 -1878.48 162.54 0zm2565.55 2468.77c-405.82,0 -717.08,-85.88 -933.8,-257.64 -216.71,-171.76 -325.08,-422.88 -325.08,-753.35l0 -991.42 162.54 0 0 991.42c0,273.95 96.67,483.21 290.02,627.79 193.35,144.58 472.74,216.88 838.19,216.88 220.97,0 414.84,-34.24 581.63,-102.73 166.79,-68.48 297.98,-169.04 393.6,-301.67l0 -1431.69 162.54 0 0 1894.79 -162.54 0 0 -257.64c-104.11,115.23 -245.4,204.92 -423.87,269.05 -178.47,64.14 -372.88,96.21 -583.22,96.21zm3238.01 -32.61c-193.35,0 -369.17,-25.55 -527.45,-76.64 -158.29,-51.09 -294.27,-122.84 -407.94,-215.24 -113.67,-92.4 -201.31,-203.29 -262.93,-332.65 -61.62,-129.36 -92.42,-273.4 -92.42,-432.12 0,-158.71 30.81,-302.75 92.42,-432.12 61.61,-129.36 149.26,-240.25 262.93,-332.65 113.67,-92.4 249.65,-163.61 407.94,-213.61 158.29,-50 334.11,-75.01 527.45,-75.01 252.83,0 476.46,42.39 670.86,127.19 194.41,84.79 352.17,215.24 473.27,391.35l-133.86 94.58c-101.99,-150.02 -239.02,-261.99 -411.12,-335.91 -172.1,-73.92 -371.82,-110.88 -599.16,-110.88 -169.98,0 -324.02,21.2 -462.12,63.59 -138.11,42.4 -256.56,102.73 -355.35,181 -98.79,78.27 -175.29,171.76 -229.46,280.47 -54.18,108.71 -81.27,229.37 -81.27,362 0,134.8 27.09,256.55 81.27,365.26 54.18,108.71 130.67,202.2 229.46,280.47 98.8,78.27 217.25,138.6 355.35,181 138.1,42.4 292.14,63.6 462.12,63.6 225.21,0 425.47,-36.96 600.75,-110.88 175.29,-73.92 312.86,-182.63 412.72,-326.13l133.86 94.58c-114.73,167.41 -271.96,294.06 -471.68,379.94 -199.72,85.88 -424.94,128.82 -675.64,128.82zm2469.94 -140.23l-162.54 0 0 -1888.26 162.54 0 0 1888.26zm-207.16 -2279.61c0,-36.96 11.69,-68.49 35.05,-94.58 23.37,-26.09 53.12,-39.13 89.24,-39.13 36.12,0 66.93,13.05 92.42,39.13 25.5,26.09 38.25,57.62 38.25,94.58 0,36.96 -12.75,67.4 -38.25,91.31 -25.49,23.92 -56.3,35.87 -92.42,35.87 -36.12,0 -65.86,-11.96 -89.24,-35.87 -23.37,-23.91 -35.05,-54.35 -35.05,-91.31zm2460.38 2387.24c-193.35,0 -369.17,-25.55 -527.45,-76.64 -158.29,-51.09 -294.27,-122.84 -407.94,-215.24 -113.67,-92.4 -201.31,-203.29 -262.93,-332.65 -61.62,-129.36 -92.42,-273.4 -92.42,-432.12 0,-158.71 30.81,-302.75 92.42,-432.12 61.61,-129.36 149.26,-240.25 262.93,-332.65 113.67,-92.4 249.65,-163.61 407.94,-213.61 158.29,-50 334.11,-75.01 527.45,-75.01 193.34,0 369.16,25 527.45,75.01 158.29,50.01 293.74,121.21 406.34,213.61 112.61,92.4 200.25,203.29 262.93,332.65 62.67,129.36 94.02,273.4 94.02,432.12 0,158.71 -31.34,302.75 -94.02,432.12 -62.68,129.36 -150.32,240.25 -262.93,332.65 -112.61,92.4 -248.05,164.15 -406.34,215.24 -158.29,51.09 -334.1,76.64 -527.45,76.64zm0 -1943.71c-169.98,0 -324.02,21.2 -462.12,63.59 -138.11,42.4 -256.56,102.73 -355.35,181 -98.79,78.27 -175.29,171.76 -229.46,280.47 -54.18,108.71 -81.27,229.37 -81.27,362 0,134.8 27.09,256.55 81.27,365.26 54.18,108.71 130.67,202.2 229.46,280.47 98.8,78.27 217.25,138.6 355.35,181 138.1,42.4 292.14,63.6 462.12,63.6 167.85,0 321.36,-21.2 460.52,-63.6 139.17,-42.39 258.15,-102.73 356.95,-181 98.79,-78.27 175.29,-171.76 229.46,-280.47 54.18,-108.71 81.27,-230.46 81.27,-365.26 0,-132.62 -27.09,-253.29 -81.27,-362 -54.18,-108.71 -130.67,-202.2 -229.46,-280.47 -98.8,-78.27 -217.78,-138.6 -356.95,-181 -139.17,-42.39 -292.68,-63.59 -460.52,-63.59zm4509.63 1901.31l-162.54 0 0 -989.79c0,-274.49 -92.96,-484.29 -278.86,-628.88 -185.91,-145.13 -461.58,-217.42 -827.03,-217.42 -220.97,0 -418.56,34.24 -592.78,102.73 -174.23,69.03 -309.14,169.58 -404.75,302.21l0 1431.15 -162.54 0 0 -1894.79 162.54 0 0 264.16c110.48,-123.93 253.37,-216.87 428.65,-278.84 175.29,-61.96 364.91,-92.94 568.88,-92.94 418.56,0 734.61,86.42 948.14,259.27 213.53,172.84 320.3,424.51 320.3,754.98l0 988.16z"/>
  </g>
 </g>
</svg>
